# Blender v2.78 (sub 0) OBJ File: 'Building D B2.blend'
# www.blender.org
mtllib Building D B2.mtl
o Cube.001_Cube.000
v -40.000000 -5.000000 30.000000
v -10.000000 -10.000000 30.000000
v -20.000000 -5.000000 40.000000
v -10.000000 -10.000000 40.000000
v -10.000000 -10.000000 50.000000
v -20.000000 -10.000000 60.000000
v -10.000000 -10.000000 60.000000
v -20.000000 -10.000000 80.000000
v -10.000000 -10.000000 70.000000
v -10.000000 -10.000000 80.000000
v -20.000000 -5.000000 70.000000
v -10.000000 -5.000000 80.000000
v -30.000000 -10.000000 40.000000
v -20.000000 -10.000000 30.000000
v -20.000000 -10.000000 40.000000
v -30.000000 -10.000000 50.000000
v -30.000000 -5.000000 40.000000
v -20.000000 -10.000000 50.000000
v -30.000000 -5.000000 60.000000
v -30.000000 -10.000000 70.000000
v -20.000000 -10.000000 70.000000
v -20.000000 -5.000000 80.000000
v -70.000000 -10.000000 30.000000
v -60.000000 -5.000000 30.000000
v -70.000000 -10.000000 40.000000
v -70.000000 -10.000000 60.000000
v -70.000000 -10.000000 50.000000
v -60.000000 -10.000000 50.000000
v -70.000000 -10.000000 70.000000
v -70.000000 -10.000000 80.000000
v -70.000000 -5.000000 80.000000
v -70.000000 -5.000000 70.000000
v -50.000000 -10.000000 30.000000
v -50.000000 -5.000000 30.000000
v -50.000000 -5.000000 50.000000
v -40.000000 -5.000000 60.000000
v -50.000000 -10.000000 60.000000
v -50.000000 -5.000000 60.000000
v -40.000000 -5.000000 70.000000
v -40.000000 -5.000000 80.000000
v -60.000000 -10.000000 30.000000
v -60.000000 -10.000000 40.000000
v -50.000000 -10.000000 40.000000
v -50.000000 -10.000000 50.000000
v -60.000000 -10.000000 70.000000
v -60.000000 -10.000000 60.000000
v -50.000000 -10.000000 70.000000
v -50.000000 -5.000000 70.000000
v -60.000000 -10.000000 80.000000
v -50.000000 -10.000000 80.000000
v -40.000000 -10.000000 40.000000
v -40.000000 -10.000000 30.000000
v -30.000000 -10.000000 30.000000
v -40.000000 -10.000000 60.000000
v -40.000000 -10.000000 50.000000
v -30.000000 -5.000000 50.000000
v -40.000000 -10.000000 70.000000
v -30.000000 -10.000000 60.000000
v -40.000000 -10.000000 80.000000
v -30.000000 -10.000000 80.000000
v -20.000000 -5.000000 30.000000
v -10.000000 -5.000000 30.000000
v -10.000000 -5.000000 40.000000
v -20.000000 -5.000000 50.000000
v -10.000000 -5.000000 50.000000
v -20.000000 -5.000000 60.000000
v -10.000000 -5.000000 60.000000
v -10.000000 -5.000000 70.000000
v -30.000000 -5.000000 30.000000
v -30.000000 -5.000000 70.000000
v -70.000000 -5.000000 40.000000
v -70.000000 -5.000000 30.000000
v -60.000000 -5.000000 40.000000
v -70.000000 -5.000000 50.000000
v -60.000000 -5.000000 50.000000
v -70.000000 -5.000000 60.000000
v -60.000000 -5.000000 80.000000
v -50.000000 -5.000000 40.000000
v -40.000000 -5.000000 40.000000
v -40.000000 -5.000000 50.000000
v -50.000000 -5.000000 80.000000
v -60.000000 -5.000000 70.000000
v -60.000000 -5.000000 60.000000
v -30.000000 -5.000000 80.000000
vn 0.0000 0.0000 1.0000
vn -1.0000 0.0000 0.0000
vn 0.0000 1.0000 0.0000
vn 0.0000 -1.0000 0.0000
vn 0.0000 0.0000 -1.0000
vn 1.0000 0.0000 0.0000
usemtl None
s off
f 61//1 14//1 2//1 62//1
f 62//2 2//2 4//2 63//2
f 15//3 4//3 2//3 14//3
f 63//4 3//4 61//4 62//4
f 63//2 4//2 5//2 65//2
f 18//3 5//3 4//3 15//3
f 65//4 64//4 3//4 63//4
f 65//2 5//2 7//2 67//2
f 6//3 7//3 5//3 18//3
f 67//4 66//4 64//4 65//4
f 21//3 9//3 7//3 6//3
f 68//4 11//4 66//4 67//4
f 68//2 9//2 10//2 12//2
f 12//5 10//5 8//5 22//5
f 8//3 10//3 9//3 21//3
f 12//4 22//4 11//4 68//4
f 69//1 53//1 14//1 61//1
f 13//3 15//3 14//3 53//3
f 3//4 17//4 69//4 61//4
f 16//3 18//3 15//3 13//3
f 64//4 56//4 17//4 3//4
f 58//3 6//3 18//3 16//3
f 66//4 19//4 56//4 64//4
f 20//3 21//3 6//3 58//3
f 11//4 70//4 19//4 66//4
f 22//5 8//5 60//5 84//5
f 60//3 8//3 21//3 20//3
f 22//4 84//4 70//4 11//4
f 71//6 25//6 23//6 72//6
f 72//1 23//1 41//1 24//1
f 25//3 42//3 41//3 23//3
f 73//4 71//4 72//4 24//4
f 74//6 27//6 25//6 71//6
f 27//3 28//3 42//3 25//3
f 75//4 74//4 71//4 73//4
f 76//6 26//6 27//6 74//6
f 26//3 46//3 28//3 27//3
f 83//4 76//4 74//4 75//4
f 32//6 29//6 26//6 76//6
f 82//5 45//5 29//5 32//5
f 29//3 45//3 46//3 26//3
f 82//4 32//4 76//4 83//4
f 31//6 30//6 29//6 32//6
f 82//6 77//6 49//6 45//6
f 77//5 49//5 30//5 31//5
f 30//3 49//3 45//3 29//3
f 77//4 31//4 32//4 82//4
f 34//1 33//1 52//1 1//1
f 43//3 51//3 52//3 33//3
f 79//4 78//4 34//4 1//4
f 44//3 55//3 51//3 43//3
f 80//4 35//4 78//4 79//4
f 37//3 54//3 55//3 44//3
f 36//4 38//4 35//4 80//4
f 47//3 57//3 54//3 37//3
f 39//4 48//4 38//4 36//4
f 40//5 59//5 50//5 81//5
f 50//3 59//3 57//3 47//3
f 40//4 81//4 48//4 39//4
f 24//1 41//1 33//1 34//1
f 42//3 43//3 33//3 41//3
f 78//4 73//4 24//4 34//4
f 28//3 44//3 43//3 42//3
f 35//4 75//4 73//4 78//4
f 46//3 37//3 44//3 28//3
f 38//4 83//4 75//4 35//4
f 45//3 47//3 37//3 46//3
f 48//4 82//4 83//4 38//4
f 81//5 50//5 49//5 77//5
f 49//3 50//3 47//3 45//3
f 81//4 77//4 82//4 48//4
f 1//1 52//1 53//1 69//1
f 51//3 13//3 53//3 52//3
f 17//4 79//4 1//4 69//4
f 55//3 16//3 13//3 51//3
f 56//4 80//4 79//4 17//4
f 54//3 58//3 16//3 55//3
f 19//4 36//4 80//4 56//4
f 57//3 20//3 58//3 54//3
f 70//4 39//4 36//4 19//4
f 84//5 60//5 59//5 40//5
f 59//3 60//3 20//3 57//3
f 84//4 40//4 39//4 70//4
o Cube.003
v -40.000000 -5.000000 30.000000
v -10.000000 -10.000000 30.000000
v -20.000000 -5.000000 40.000000
v -10.000000 -10.000000 40.000000
v -10.000000 -10.000000 50.000000
v -20.000000 -10.000000 60.000000
v -10.000000 -10.000000 60.000000
v -20.000000 -10.000000 80.000000
v -10.000000 -10.000000 70.000000
v -10.000000 -10.000000 80.000000
v -20.000000 -5.000000 70.000000
v -10.000000 -5.000000 80.000000
v -30.000000 -10.000000 40.000000
v -20.000000 -10.000000 30.000000
v -20.000000 -10.000000 40.000000
v -30.000000 -10.000000 50.000000
v -30.000000 -5.000000 40.000000
v -20.000000 -10.000000 50.000000
v -30.000000 -5.000000 60.000000
v -30.000000 -10.000000 70.000000
v -20.000000 -10.000000 70.000000
v -20.000000 -5.000000 80.000000
v -70.000000 -10.000000 30.000000
v -60.000000 -5.000000 30.000000
v -70.000000 -10.000000 40.000000
v -70.000000 -10.000000 60.000000
v -70.000000 -10.000000 50.000000
v -60.000000 -10.000000 50.000000
v -70.000000 -10.000000 70.000000
v -70.000000 -10.000000 80.000000
v -70.000000 -5.000000 80.000000
v -70.000000 -5.000000 70.000000
v -50.000000 -10.000000 30.000000
v -50.000000 -5.000000 30.000000
v -50.000000 -5.000000 50.000000
v -40.000000 -5.000000 60.000000
v -50.000000 -10.000000 60.000000
v -50.000000 -5.000000 60.000000
v -40.000000 -5.000000 70.000000
v -40.000000 -5.000000 80.000000
v -60.000000 -10.000000 30.000000
v -60.000000 -10.000000 40.000000
v -50.000000 -10.000000 40.000000
v -50.000000 -10.000000 50.000000
v -60.000000 -10.000000 70.000000
v -60.000000 -10.000000 60.000000
v -50.000000 -10.000000 70.000000
v -50.000000 -5.000000 70.000000
v -60.000000 -10.000000 80.000000
v -50.000000 -10.000000 80.000000
v -40.000000 -10.000000 40.000000
v -40.000000 -10.000000 30.000000
v -30.000000 -10.000000 30.000000
v -40.000000 -10.000000 60.000000
v -40.000000 -10.000000 50.000000
v -30.000000 -5.000000 50.000000
v -40.000000 -10.000000 70.000000
v -30.000000 -10.000000 60.000000
v -40.000000 -10.000000 80.000000
v -30.000000 -10.000000 80.000000
v -20.000000 -5.000000 30.000000
v -10.000000 -5.000000 30.000000
v -10.000000 -5.000000 40.000000
v -20.000000 -5.000000 50.000000
v -10.000000 -5.000000 50.000000
v -20.000000 -5.000000 60.000000
v -10.000000 -5.000000 60.000000
v -10.000000 -5.000000 70.000000
v -30.000000 -5.000000 30.000000
v -30.000000 -5.000000 70.000000
v -70.000000 -5.000000 40.000000
v -70.000000 -5.000000 30.000000
v -60.000000 -5.000000 40.000000
v -70.000000 -5.000000 50.000000
v -60.000000 -5.000000 50.000000
v -70.000000 -5.000000 60.000000
v -60.000000 -5.000000 80.000000
v -50.000000 -5.000000 40.000000
v -40.000000 -5.000000 40.000000
v -40.000000 -5.000000 50.000000
v -50.000000 -5.000000 80.000000
v -60.000000 -5.000000 70.000000
v -60.000000 -5.000000 60.000000
v -30.000000 -5.000000 80.000000
vn 0.0000 0.0000 -1.0000
vn 1.0000 0.0000 0.0000
vn 0.0000 -1.0000 0.0000
vn 0.0000 1.0000 0.0000
vn 0.0000 0.0000 1.0000
vn -1.0000 0.0000 0.0000
usemtl None
s off
f 145//7 146//7 86//7 98//7
f 146//8 147//8 88//8 86//8
f 99//9 98//9 86//9 88//9
f 147//10 146//10 145//10 87//10
f 147//8 149//8 89//8 88//8
f 102//9 99//9 88//9 89//9
f 149//10 147//10 87//10 148//10
f 149//8 151//8 91//8 89//8
f 90//9 102//9 89//9 91//9
f 151//10 149//10 148//10 150//10
f 105//9 90//9 91//9 93//9
f 152//10 151//10 150//10 95//10
f 152//8 96//8 94//8 93//8
f 96//11 106//11 92//11 94//11
f 92//9 105//9 93//9 94//9
f 96//10 152//10 95//10 106//10
f 153//7 145//7 98//7 137//7
f 97//9 137//9 98//9 99//9
f 87//10 145//10 153//10 101//10
f 100//9 97//9 99//9 102//9
f 148//10 87//10 101//10 140//10
f 142//9 100//9 102//9 90//9
f 150//10 148//10 140//10 103//10
f 104//9 142//9 90//9 105//9
f 95//10 150//10 103//10 154//10
f 106//11 168//11 144//11 92//11
f 144//9 104//9 105//9 92//9
f 106//10 95//10 154//10 168//10
f 155//12 156//12 107//12 109//12
f 156//7 108//7 125//7 107//7
f 109//9 107//9 125//9 126//9
f 157//10 108//10 156//10 155//10
f 158//12 155//12 109//12 111//12
f 111//9 109//9 126//9 112//9
f 159//10 157//10 155//10 158//10
f 160//12 158//12 111//12 110//12
f 110//9 111//9 112//9 130//9
f 167//10 159//10 158//10 160//10
f 116//12 160//12 110//12 113//12
f 166//11 116//11 113//11 129//11
f 113//9 110//9 130//9 129//9
f 166//10 167//10 160//10 116//10
f 115//12 116//12 113//12 114//12
f 166//12 129//12 133//12 161//12
f 161//11 115//11 114//11 133//11
f 114//9 113//9 129//9 133//9
f 161//10 166//10 116//10 115//10
f 118//7 85//7 136//7 117//7
f 127//9 117//9 136//9 135//9
f 163//10 85//10 118//10 162//10
f 128//9 127//9 135//9 139//9
f 164//10 163//10 162//10 119//10
f 121//9 128//9 139//9 138//9
f 120//10 164//10 119//10 122//10
f 131//9 121//9 138//9 141//9
f 123//10 120//10 122//10 132//10
f 124//11 165//11 134//11 143//11
f 134//9 131//9 141//9 143//9
f 124//10 123//10 132//10 165//10
f 108//7 118//7 117//7 125//7
f 126//9 125//9 117//9 127//9
f 162//10 118//10 108//10 157//10
f 112//9 126//9 127//9 128//9
f 119//10 162//10 157//10 159//10
f 130//9 112//9 128//9 121//9
f 122//10 119//10 159//10 167//10
f 129//9 130//9 121//9 131//9
f 132//10 122//10 167//10 166//10
f 165//11 161//11 133//11 134//11
f 133//9 129//9 131//9 134//9
f 165//10 132//10 166//10 161//10
f 85//7 153//7 137//7 136//7
f 135//9 136//9 137//9 97//9
f 101//10 153//10 85//10 163//10
f 139//9 135//9 97//9 100//9
f 140//10 101//10 163//10 164//10
f 138//9 139//9 100//9 142//9
f 103//10 140//10 164//10 120//10
f 141//9 138//9 142//9 104//9
f 154//10 103//10 120//10 123//10
f 168//11 124//11 143//11 144//11
f 143//9 141//9 104//9 144//9
f 168//10 154//10 123//10 124//10
