# Blender v2.78 (sub 0) OBJ File: 'Building B F1.blend'
# www.blender.org
mtllib Building B F1.mtl
o Cube.001_Cube.000
v -30.000000 0.000000 10.000000
v -30.000000 0.000000 -10.000000
v -40.000000 0.000000 -20.000000
v -70.000000 0.000000 -20.000000
v -60.000000 0.000000 -10.000000
v -60.000000 5.000000 -10.000000
v -50.000000 0.000000 -20.000000
v -40.000000 0.000000 -10.000000
v -30.000000 0.000000 -20.000000
v -40.000000 5.000000 -20.000000
v -70.000000 0.000000 -10.000000
v -60.000000 0.000000 0.000000
v -50.000000 0.000000 0.000000
v -30.000000 0.000000 0.000000
v -40.000000 5.000000 -10.000000
v -30.000000 5.000000 0.000000
v -70.000000 5.000000 10.000000
v -70.000000 5.000000 0.000000
v -60.000000 5.000000 10.000000
v -60.000000 5.000000 0.000000
v -40.000000 0.000000 0.000000
v -70.000000 0.000000 20.000000
v -70.000000 0.000000 10.000000
v -60.000000 0.000000 20.000000
v -50.000000 0.000000 20.000000
v -40.000000 5.000000 20.000000
v -30.000000 5.000000 10.000000
v -70.000000 5.000000 30.000000
v -70.000000 5.000000 -20.000000
v -60.000000 5.000000 -20.000000
v -50.000000 5.000000 -20.000000
v -30.000000 5.000000 -20.000000
v -70.000000 5.000000 -10.000000
v -50.000000 5.000000 -10.000000
v -50.000000 5.000000 0.000000
v -40.000000 5.000000 0.000000
v -30.000000 5.000000 -10.000000
v -50.000000 5.000000 10.000000
v -60.000000 5.000000 20.000000
v -50.000000 5.000000 20.000000
v -40.000000 5.000000 10.000000
v -30.000000 5.000000 20.000000
v -70.000000 5.000000 20.000000
v -60.000000 0.000000 -20.000000
v -50.000000 0.000000 -10.000000
v -70.000000 0.000000 0.000000
v -60.000000 0.000000 10.000000
v -50.000000 0.000000 10.000000
v -40.000000 0.000000 20.000000
v -40.000000 0.000000 10.000000
v -40.000000 0.000000 30.000000
v -30.000000 0.000000 20.000000
v -70.000000 0.000000 30.000000
v -60.000000 0.000000 30.000000
v -50.000000 0.000000 30.000000
v -30.000000 0.000000 30.000000
v -30.000000 5.000000 30.000000
v -60.000000 5.000000 30.000000
v -50.000000 5.000000 30.000000
v -40.000000 5.000000 30.000000
v -30.000000 1.000000 -10.000000
v -40.000000 1.000000 -20.000000
v -40.000000 1.000000 -10.000000
v -30.000000 1.000000 -20.000000
v -40.000000 4.000000 30.000000
v -40.000000 3.000000 30.000000
v -40.000000 2.000000 30.000000
v -40.000000 1.000000 30.000000
v -30.000000 4.000000 30.000000
v -30.000000 3.000000 30.000000
v -30.000000 2.000000 30.000000
v -30.000000 1.000000 30.000000
v -32.000000 5.000000 30.000000
v -34.000000 5.000000 30.000000
v -36.000000 5.000000 30.000000
v -38.000000 5.000000 30.000000
v -38.000000 0.000000 30.000000
v -36.000000 0.000000 30.000000
v -34.000000 0.000000 30.000000
v -32.000000 0.000000 30.000000
v -32.000000 4.000000 30.000000
v -32.000000 3.000000 30.000000
v -32.000000 2.000000 30.000000
v -32.000000 1.000000 30.000000
v -34.000000 4.000000 30.000000
v -34.000000 3.000000 30.000000
v -34.000000 2.000000 30.000000
v -34.000000 1.000000 30.000000
v -36.000000 4.000000 30.000000
v -36.000000 3.000000 30.000000
v -36.000000 2.000000 30.000000
v -36.000000 1.000000 30.000000
v -38.000000 4.000000 30.000000
v -38.000000 3.000000 30.000000
v -38.000000 2.000000 30.000000
v -38.000000 1.000000 30.000000
v -58.000000 0.000000 -20.000000
v -56.000000 0.000000 -20.000000
v -54.000000 0.000000 -20.000000
v -52.000000 0.000000 -20.000000
v -60.000000 4.000000 -20.000000
v -60.000000 3.000000 -20.000000
v -60.000000 2.000000 -20.000000
v -60.000000 1.000000 -20.000000
v -58.000000 5.000000 -20.000000
v -56.000000 5.000000 -20.000000
v -54.000000 5.000000 -20.000000
v -52.000000 5.000000 -20.000000
v -50.000000 4.000000 -20.000000
v -50.000000 3.000000 -20.000000
v -50.000000 2.000000 -20.000000
v -50.000000 1.000000 -20.000000
v -58.000000 4.000000 -20.000000
v -58.000000 3.000000 -20.000000
v -58.000000 2.000000 -20.000000
v -58.000000 1.000000 -20.000000
v -56.000000 4.000000 -20.000000
v -56.000000 3.000000 -20.000000
v -56.000000 2.000000 -20.000000
v -56.000000 1.000000 -20.000000
v -54.000000 4.000000 -20.000000
v -54.000000 3.000000 -20.000000
v -54.000000 2.000000 -20.000000
v -54.000000 1.000000 -20.000000
v -52.000000 4.000000 -20.000000
v -52.000000 3.000000 -20.000000
v -52.000000 2.000000 -20.000000
v -52.000000 1.000000 -20.000000
vn -1.0000 0.0000 0.0000
vn 1.0000 0.0000 0.0000
vn 0.0000 0.0000 1.0000
vn 0.0000 1.0000 0.0000
vn 0.0000 -1.0000 0.0000
vn 0.0000 0.0000 -1.0000
usemtl None
s off
f 8//1 63//1 62//1 3//1
f 33//2 11//2 4//2 29//2
f 29//3 4//3 44//3 104//3 103//3 102//3 101//3 30//3
f 6//3 33//3 11//3 5//3
f 11//4 5//4 44//4 4//4
f 6//5 33//5 29//5 30//5
f 128//3 100//3 7//3 112//3
f 5//4 45//4 7//4 100//4 99//4 98//4 97//4 44//4
f 34//5 6//5 30//5 105//5 106//5 107//5 108//5 31//5
f 31//3 109//3 110//3 111//3 112//3 7//3 3//3 10//3
f 45//4 8//4 3//4 7//4
f 15//5 34//5 31//5 10//5
f 64//3 32//3 10//3 62//3
f 61//6 63//6 15//6 37//6
f 2//3 61//3 63//3 8//3
f 37//5 15//5 10//5 32//5
f 18//2 46//2 11//2 33//2
f 6//1 5//1 12//1 20//1
f 46//4 12//4 5//4 11//4
f 20//5 18//5 33//5 6//5
f 12//4 13//4 45//4 5//4
f 35//5 20//5 6//5 34//5
f 15//2 36//2 21//2 8//2
f 13//4 21//4 8//4 45//4
f 36//5 35//5 34//5 15//5
f 37//1 2//1 14//1 16//1
f 21//4 14//4 2//4 8//4
f 16//5 36//5 15//5 37//5
f 17//2 23//2 46//2 18//2
f 20//1 12//1 47//1 19//1
f 19//3 17//3 23//3 47//3
f 23//4 47//4 12//4 46//4
f 19//5 17//5 18//5 20//5
f 47//4 48//4 13//4 12//4
f 38//5 19//5 20//5 35//5
f 36//2 41//2 50//2 21//2
f 48//4 50//4 21//4 13//4
f 41//5 38//5 35//5 36//5
f 16//1 14//1 1//1 27//1
f 27//3 41//3 50//3 1//3
f 50//4 1//4 14//4 21//4
f 27//5 41//5 36//5 16//5
f 43//2 22//2 23//2 17//2
f 19//2 39//2 24//2 47//2
f 22//4 24//4 47//4 23//4
f 39//5 43//5 17//5 19//5
f 24//4 25//4 48//4 47//4
f 40//5 39//5 19//5 38//5
f 41//1 50//1 49//1 26//1
f 26//3 40//3 25//3 49//3
f 25//4 49//4 50//4 48//4
f 26//5 40//5 38//5 41//5
f 27//1 1//1 52//1 42//1
f 49//4 52//4 1//4 50//4
f 42//5 26//5 41//5 27//5
f 28//2 53//2 22//2 43//2
f 39//2 58//2 54//2 24//2
f 58//6 54//6 53//6 28//6
f 53//4 54//4 24//4 22//4
f 58//5 28//5 43//5 39//5
f 40//2 59//2 55//2 25//2
f 59//6 55//6 54//6 58//6
f 54//4 55//4 25//4 24//4
f 59//5 58//5 39//5 40//5
f 26//1 49//1 51//1 68//1 67//1 66//1 65//1 60//1
f 60//6 65//6 66//6 67//6 68//6 51//6 55//6 59//6
f 55//4 51//4 49//4 25//4
f 60//5 59//5 40//5 26//5
f 42//1 52//1 56//1 72//1 71//1 70//1 69//1 57//1
f 96//6 77//6 51//6 68//6
f 51//4 77//4 78//4 79//4 80//4 56//4 52//4 49//4
f 57//5 73//5 74//5 75//5 76//5 60//5 26//5 42//5
f 63//4 61//4 64//4 62//4
f 3//6 62//6 64//6 9//6
f 72//6 56//6 80//6 84//6
f 84//6 80//6 79//6 88//6
f 88//6 79//6 78//6 92//6
f 92//6 78//6 77//6 96//6
f 57//6 69//6 81//6 73//6
f 69//6 70//6 82//6 81//6
f 70//6 71//6 83//6 82//6
f 71//6 72//6 84//6 83//6
f 73//6 81//6 85//6 74//6
f 81//6 82//6 86//6 85//6
f 82//6 83//6 87//6 86//6
f 83//6 84//6 88//6 87//6
f 74//6 85//6 89//6 75//6
f 85//6 86//6 90//6 89//6
f 86//6 87//6 91//6 90//6
f 87//6 88//6 92//6 91//6
f 75//6 89//6 93//6 76//6
f 89//6 90//6 94//6 93//6
f 90//6 91//6 95//6 94//6
f 91//6 92//6 96//6 95//6
f 76//6 93//6 65//6 60//6
f 93//6 94//6 66//6 65//6
f 94//6 95//6 67//6 66//6
f 95//6 96//6 68//6 67//6
f 104//3 44//3 97//3 116//3
f 116//3 97//3 98//3 120//3
f 120//3 98//3 99//3 124//3
f 124//3 99//3 100//3 128//3
f 30//3 101//3 113//3 105//3
f 101//3 102//3 114//3 113//3
f 102//3 103//3 115//3 114//3
f 103//3 104//3 116//3 115//3
f 105//3 113//3 117//3 106//3
f 113//3 114//3 118//3 117//3
f 114//3 115//3 119//3 118//3
f 115//3 116//3 120//3 119//3
f 106//3 117//3 121//3 107//3
f 117//3 118//3 122//3 121//3
f 118//3 119//3 123//3 122//3
f 119//3 120//3 124//3 123//3
f 107//3 121//3 125//3 108//3
f 121//3 122//3 126//3 125//3
f 122//3 123//3 127//3 126//3
f 123//3 124//3 128//3 127//3
f 108//3 125//3 109//3 31//3
f 125//3 126//3 110//3 109//3
f 126//3 127//3 111//3 110//3
f 127//3 128//3 112//3 111//3
o Cube.002
v -30.000000 0.000000 10.000000
v -30.000000 0.000000 -10.000000
v -40.000000 0.000000 -20.000000
v -70.000000 0.000000 -20.000000
v -60.000000 0.000000 -10.000000
v -60.000000 5.000000 -10.000000
v -50.000000 0.000000 -20.000000
v -40.000000 0.000000 -10.000000
v -30.000000 0.000000 -20.000000
v -40.000000 5.000000 -20.000000
v -70.000000 0.000000 -10.000000
v -60.000000 0.000000 0.000000
v -50.000000 0.000000 0.000000
v -30.000000 0.000000 0.000000
v -40.000000 5.000000 -10.000000
v -30.000000 5.000000 0.000000
v -70.000000 5.000000 10.000000
v -70.000000 5.000000 0.000000
v -60.000000 5.000000 10.000000
v -60.000000 5.000000 0.000000
v -40.000000 0.000000 0.000000
v -70.000000 0.000000 20.000000
v -70.000000 0.000000 10.000000
v -60.000000 0.000000 20.000000
v -50.000000 0.000000 20.000000
v -40.000000 5.000000 20.000000
v -30.000000 5.000000 10.000000
v -70.000000 5.000000 30.000000
v -70.000000 5.000000 -20.000000
v -60.000000 5.000000 -20.000000
v -50.000000 5.000000 -20.000000
v -30.000000 5.000000 -20.000000
v -70.000000 5.000000 -10.000000
v -50.000000 5.000000 -10.000000
v -50.000000 5.000000 0.000000
v -40.000000 5.000000 0.000000
v -30.000000 5.000000 -10.000000
v -50.000000 5.000000 10.000000
v -60.000000 5.000000 20.000000
v -50.000000 5.000000 20.000000
v -40.000000 5.000000 10.000000
v -30.000000 5.000000 20.000000
v -70.000000 5.000000 20.000000
v -60.000000 0.000000 -20.000000
v -50.000000 0.000000 -10.000000
v -70.000000 0.000000 0.000000
v -60.000000 0.000000 10.000000
v -50.000000 0.000000 10.000000
v -40.000000 0.000000 20.000000
v -40.000000 0.000000 10.000000
v -40.000000 0.000000 30.000000
v -30.000000 0.000000 20.000000
v -70.000000 0.000000 30.000000
v -60.000000 0.000000 30.000000
v -50.000000 0.000000 30.000000
v -30.000000 0.000000 30.000000
v -30.000000 5.000000 30.000000
v -60.000000 5.000000 30.000000
v -50.000000 5.000000 30.000000
v -40.000000 5.000000 30.000000
v -30.000000 1.000000 -10.000000
v -40.000000 1.000000 -20.000000
v -40.000000 1.000000 -10.000000
v -30.000000 1.000000 -20.000000
v -40.000000 4.000000 30.000000
v -40.000000 3.000000 30.000000
v -40.000000 2.000000 30.000000
v -40.000000 1.000000 30.000000
v -30.000000 4.000000 30.000000
v -30.000000 3.000000 30.000000
v -30.000000 2.000000 30.000000
v -30.000000 1.000000 30.000000
v -32.000000 5.000000 30.000000
v -34.000000 5.000000 30.000000
v -36.000000 5.000000 30.000000
v -38.000000 5.000000 30.000000
v -38.000000 0.000000 30.000000
v -36.000000 0.000000 30.000000
v -34.000000 0.000000 30.000000
v -32.000000 0.000000 30.000000
v -32.000000 4.000000 30.000000
v -32.000000 3.000000 30.000000
v -32.000000 2.000000 30.000000
v -32.000000 1.000000 30.000000
v -34.000000 4.000000 30.000000
v -34.000000 3.000000 30.000000
v -34.000000 2.000000 30.000000
v -34.000000 1.000000 30.000000
v -36.000000 4.000000 30.000000
v -36.000000 3.000000 30.000000
v -36.000000 2.000000 30.000000
v -36.000000 1.000000 30.000000
v -38.000000 4.000000 30.000000
v -38.000000 3.000000 30.000000
v -38.000000 2.000000 30.000000
v -38.000000 1.000000 30.000000
v -58.000000 0.000000 -20.000000
v -56.000000 0.000000 -20.000000
v -54.000000 0.000000 -20.000000
v -52.000000 0.000000 -20.000000
v -60.000000 4.000000 -20.000000
v -60.000000 3.000000 -20.000000
v -60.000000 2.000000 -20.000000
v -60.000000 1.000000 -20.000000
v -58.000000 5.000000 -20.000000
v -56.000000 5.000000 -20.000000
v -54.000000 5.000000 -20.000000
v -52.000000 5.000000 -20.000000
v -50.000000 4.000000 -20.000000
v -50.000000 3.000000 -20.000000
v -50.000000 2.000000 -20.000000
v -50.000000 1.000000 -20.000000
v -58.000000 4.000000 -20.000000
v -58.000000 3.000000 -20.000000
v -58.000000 2.000000 -20.000000
v -58.000000 1.000000 -20.000000
v -56.000000 4.000000 -20.000000
v -56.000000 3.000000 -20.000000
v -56.000000 2.000000 -20.000000
v -56.000000 1.000000 -20.000000
v -54.000000 4.000000 -20.000000
v -54.000000 3.000000 -20.000000
v -54.000000 2.000000 -20.000000
v -54.000000 1.000000 -20.000000
v -52.000000 4.000000 -20.000000
v -52.000000 3.000000 -20.000000
v -52.000000 2.000000 -20.000000
v -52.000000 1.000000 -20.000000
vn 1.0000 0.0000 0.0000
vn -1.0000 0.0000 0.0000
vn 0.0000 0.0000 -1.0000
vn 0.0000 -1.0000 0.0000
vn 0.0000 1.0000 0.0000
vn 0.0000 0.0000 1.0000
usemtl None
s off
f 136//7 131//7 190//7 191//7
f 161//8 157//8 132//8 139//8
f 157//9 158//9 229//9 230//9 231//9 232//9 172//9 132//9
f 134//9 133//9 139//9 161//9
f 139//10 132//10 172//10 133//10
f 134//11 158//11 157//11 161//11
f 256//9 240//9 135//9 228//9
f 133//10 172//10 225//10 226//10 227//10 228//10 135//10 173//10
f 162//11 159//11 236//11 235//11 234//11 233//11 158//11 134//11
f 159//9 138//9 131//9 135//9 240//9 239//9 238//9 237//9
f 173//10 135//10 131//10 136//10
f 143//11 138//11 159//11 162//11
f 192//9 190//9 138//9 160//9
f 189//12 165//12 143//12 191//12
f 130//9 136//9 191//9 189//9
f 165//11 160//11 138//11 143//11
f 146//8 161//8 139//8 174//8
f 134//7 148//7 140//7 133//7
f 174//10 139//10 133//10 140//10
f 148//11 134//11 161//11 146//11
f 140//10 133//10 173//10 141//10
f 163//11 162//11 134//11 148//11
f 143//8 136//8 149//8 164//8
f 141//10 173//10 136//10 149//10
f 164//11 143//11 162//11 163//11
f 165//7 144//7 142//7 130//7
f 149//10 136//10 130//10 142//10
f 144//11 165//11 143//11 164//11
f 145//8 146//8 174//8 151//8
f 148//7 147//7 175//7 140//7
f 147//9 175//9 151//9 145//9
f 151//10 174//10 140//10 175//10
f 147//11 148//11 146//11 145//11
f 175//10 140//10 141//10 176//10
f 166//11 163//11 148//11 147//11
f 164//8 149//8 178//8 169//8
f 176//10 141//10 149//10 178//10
f 169//11 164//11 163//11 166//11
f 144//7 155//7 129//7 142//7
f 155//9 129//9 178//9 169//9
f 178//10 149//10 142//10 129//10
f 155//11 144//11 164//11 169//11
f 171//8 145//8 151//8 150//8
f 147//8 175//8 152//8 167//8
f 150//10 151//10 175//10 152//10
f 167//11 147//11 145//11 171//11
f 152//10 175//10 176//10 153//10
f 168//11 166//11 147//11 167//11
f 169//7 154//7 177//7 178//7
f 154//9 177//9 153//9 168//9
f 153//10 176//10 178//10 177//10
f 154//11 169//11 166//11 168//11
f 155//7 170//7 180//7 129//7
f 177//10 178//10 129//10 180//10
f 170//11 155//11 169//11 154//11
f 156//8 171//8 150//8 181//8
f 167//8 152//8 182//8 186//8
f 186//12 156//12 181//12 182//12
f 181//10 150//10 152//10 182//10
f 186//11 167//11 171//11 156//11
f 168//8 153//8 183//8 187//8
f 187//12 186//12 182//12 183//12
f 182//10 152//10 153//10 183//10
f 187//11 168//11 167//11 186//11
f 154//7 188//7 193//7 194//7 195//7 196//7 179//7 177//7
f 188//12 187//12 183//12 179//12 196//12 195//12 194//12 193//12
f 183//10 153//10 177//10 179//10
f 188//11 154//11 168//11 187//11
f 170//7 185//7 197//7 198//7 199//7 200//7 184//7 180//7
f 224//12 196//12 179//12 205//12
f 179//10 177//10 180//10 184//10 208//10 207//10 206//10 205//10
f 185//11 170//11 154//11 188//11 204//11 203//11 202//11 201//11
f 191//10 190//10 192//10 189//10
f 131//12 137//12 192//12 190//12
f 200//12 212//12 208//12 184//12
f 212//12 216//12 207//12 208//12
f 216//12 220//12 206//12 207//12
f 220//12 224//12 205//12 206//12
f 185//12 201//12 209//12 197//12
f 197//12 209//12 210//12 198//12
f 198//12 210//12 211//12 199//12
f 199//12 211//12 212//12 200//12
f 201//12 202//12 213//12 209//12
f 209//12 213//12 214//12 210//12
f 210//12 214//12 215//12 211//12
f 211//12 215//12 216//12 212//12
f 202//12 203//12 217//12 213//12
f 213//12 217//12 218//12 214//12
f 214//12 218//12 219//12 215//12
f 215//12 219//12 220//12 216//12
f 203//12 204//12 221//12 217//12
f 217//12 221//12 222//12 218//12
f 218//12 222//12 223//12 219//12
f 219//12 223//12 224//12 220//12
f 204//12 188//12 193//12 221//12
f 221//12 193//12 194//12 222//12
f 222//12 194//12 195//12 223//12
f 223//12 195//12 196//12 224//12
f 232//9 244//9 225//9 172//9
f 244//9 248//9 226//9 225//9
f 248//9 252//9 227//9 226//9
f 252//9 256//9 228//9 227//9
f 158//9 233//9 241//9 229//9
f 229//9 241//9 242//9 230//9
f 230//9 242//9 243//9 231//9
f 231//9 243//9 244//9 232//9
f 233//9 234//9 245//9 241//9
f 241//9 245//9 246//9 242//9
f 242//9 246//9 247//9 243//9
f 243//9 247//9 248//9 244//9
f 234//9 235//9 249//9 245//9
f 245//9 249//9 250//9 246//9
f 246//9 250//9 251//9 247//9
f 247//9 251//9 252//9 248//9
f 235//9 236//9 253//9 249//9
f 249//9 253//9 254//9 250//9
f 250//9 254//9 255//9 251//9
f 251//9 255//9 256//9 252//9
f 236//9 159//9 237//9 253//9
f 253//9 237//9 238//9 254//9
f 254//9 238//9 239//9 255//9
f 255//9 239//9 240//9 256//9
