# Blender v2.78 (sub 0) OBJ File: 'Building B F3.blend'
# www.blender.org
mtllib Building B F3.mtl
o Cube.001_Cube.000
v -60.000000 10.000000 -20.000000
v -70.000000 15.000000 -10.000000
v -70.000000 15.000000 -20.000000
v -50.000000 10.000000 -10.000000
v -60.000000 15.000000 -20.000000
v -50.000000 15.000000 -20.000000
v -50.000000 10.000000 -20.000000
v -50.000000 15.000000 -10.000000
v -40.000000 10.000000 -20.000000
v -30.000000 10.000000 -20.000000
v -30.000000 10.000000 -10.000000
v -40.000000 15.000000 -20.000000
v -30.000000 15.000000 -20.000000
v -70.000000 15.000000 0.000000
v -60.000000 15.000000 0.000000
v -60.000000 15.000000 -10.000000
v -50.000000 10.000000 0.000000
v -40.000000 15.000000 0.000000
v -40.000000 15.000000 -10.000000
v -30.000000 15.000000 -10.000000
v -30.000000 15.000000 0.000000
v -70.000000 10.000000 0.000000
v -60.000000 10.000000 10.000000
v -70.000000 15.000000 10.000000
v -40.000000 10.000000 10.000000
v -50.000000 15.000000 0.000000
v -30.000000 15.000000 10.000000
v -70.000000 10.000000 10.000000
v -60.000000 10.000000 20.000000
v -60.000000 15.000000 10.000000
v -50.000000 15.000000 20.000000
v -50.000000 15.000000 10.000000
v -40.000000 15.000000 20.000000
v -40.000000 15.000000 10.000000
v -70.000000 10.000000 30.000000
v -70.000000 15.000000 30.000000
v -70.000000 15.000000 20.000000
v -60.000000 15.000000 30.000000
v -60.000000 15.000000 20.000000
v -50.000000 15.000000 30.000000
v -40.000000 10.000000 30.000000
v -30.000000 10.000000 20.000000
v -40.000000 15.000000 30.000000
v -30.000000 15.000000 20.000000
v -30.000000 15.000000 30.000000
v -70.000000 10.000000 -20.000000
v -60.000000 10.000000 -10.000000
v -40.000000 10.000000 -10.000000
v -70.000000 10.000000 -10.000000
v -60.000000 10.000000 0.000000
v -50.000000 10.000000 10.000000
v -40.000000 10.000000 0.000000
v -30.000000 10.000000 0.000000
v -30.000000 10.000000 10.000000
v -50.000000 10.000000 20.000000
v -40.000000 10.000000 20.000000
v -70.000000 10.000000 20.000000
v -60.000000 10.000000 30.000000
v -30.000000 10.000000 30.000000
v -50.000000 10.000000 30.000000
vn 0.0000 0.0000 1.0000
vn 0.0000 -1.0000 0.0000
vn 1.0000 0.0000 0.0000
vn 0.0000 0.0000 -1.0000
vn 0.0000 1.0000 0.0000
vn -1.0000 0.0000 0.0000
usemtl None
s off
f 12//1 9//1 10//1 13//1
f 21//2 18//2 19//2 20//2
f 2//3 49//3 46//3 3//3
f 3//1 46//1 1//1 5//1
f 16//4 47//4 49//4 2//4
f 49//5 47//5 1//5 46//5
f 16//2 2//2 3//2 5//2
f 5//1 1//1 7//1 6//1
f 6//6 7//6 4//6 8//6
f 8//4 4//4 47//4 16//4
f 47//5 4//5 7//5 1//5
f 8//2 16//2 5//2 6//2
f 6//1 7//1 9//1 12//1
f 19//4 48//4 4//4 8//4
f 4//5 48//5 9//5 7//5
f 19//2 8//2 6//2 12//2
f 13//6 10//6 11//6 20//6
f 20//4 11//4 48//4 19//4
f 48//5 11//5 10//5 9//5
f 20//2 19//2 12//2 13//2
f 14//3 22//3 49//3 2//3
f 16//3 15//3 50//3 47//3
f 22//5 50//5 47//5 49//5
f 15//2 14//2 2//2 16//2
f 50//5 17//5 4//5 47//5
f 26//2 15//2 16//2 8//2
f 19//3 18//3 52//3 48//3
f 17//5 52//5 48//5 4//5
f 18//2 26//2 8//2 19//2
f 20//6 11//6 53//6 21//6
f 52//5 53//5 11//5 48//5
f 24//3 28//3 22//3 14//3
f 15//3 30//3 23//3 50//3
f 30//1 24//1 28//1 23//1
f 28//5 23//5 50//5 22//5
f 30//2 24//2 14//2 15//2
f 23//5 51//5 17//5 50//5
f 32//2 30//2 15//2 26//2
f 18//3 34//3 25//3 52//3
f 51//5 25//5 52//5 17//5
f 34//2 32//2 26//2 18//2
f 21//6 53//6 54//6 27//6
f 27//1 34//1 25//1 54//1
f 25//5 54//5 53//5 52//5
f 27//2 34//2 18//2 21//2
f 37//3 57//3 28//3 24//3
f 30//3 39//3 29//3 23//3
f 57//5 29//5 23//5 28//5
f 39//2 37//2 24//2 30//2
f 29//5 55//5 51//5 23//5
f 31//2 39//2 30//2 32//2
f 34//6 25//6 56//6 33//6
f 33//1 31//1 55//1 56//1
f 55//5 56//5 25//5 51//5
f 33//2 31//2 32//2 34//2
f 27//6 54//6 42//6 44//6
f 56//5 42//5 54//5 25//5
f 44//2 33//2 34//2 27//2
f 36//3 35//3 57//3 37//3
f 39//3 38//3 58//3 29//3
f 38//4 58//4 35//4 36//4
f 35//5 58//5 29//5 57//5
f 38//2 36//2 37//2 39//2
f 31//3 40//3 60//3 55//3
f 40//4 60//4 58//4 38//4
f 58//5 60//5 55//5 29//5
f 40//2 38//2 39//2 31//2
f 33//6 56//6 41//6 43//6
f 43//4 41//4 60//4 40//4
f 60//5 41//5 56//5 55//5
f 43//2 40//2 31//2 33//2
f 44//6 42//6 59//6 45//6
f 45//4 59//4 41//4 43//4
f 41//5 59//5 42//5 56//5
f 45//2 43//2 33//2 44//2
o Cube.002
v -60.000000 10.000000 -20.000000
v -70.000000 15.000000 -10.000000
v -70.000000 15.000000 -20.000000
v -50.000000 10.000000 -10.000000
v -60.000000 15.000000 -20.000000
v -50.000000 15.000000 -20.000000
v -50.000000 10.000000 -20.000000
v -50.000000 15.000000 -10.000000
v -40.000000 10.000000 -20.000000
v -30.000000 10.000000 -20.000000
v -30.000000 10.000000 -10.000000
v -40.000000 15.000000 -20.000000
v -30.000000 15.000000 -20.000000
v -70.000000 15.000000 0.000000
v -60.000000 15.000000 0.000000
v -60.000000 15.000000 -10.000000
v -50.000000 10.000000 0.000000
v -40.000000 15.000000 0.000000
v -40.000000 15.000000 -10.000000
v -30.000000 15.000000 -10.000000
v -30.000000 15.000000 0.000000
v -70.000000 10.000000 0.000000
v -60.000000 10.000000 10.000000
v -70.000000 15.000000 10.000000
v -40.000000 10.000000 10.000000
v -50.000000 15.000000 0.000000
v -30.000000 15.000000 10.000000
v -70.000000 10.000000 10.000000
v -60.000000 10.000000 20.000000
v -60.000000 15.000000 10.000000
v -50.000000 15.000000 20.000000
v -50.000000 15.000000 10.000000
v -40.000000 15.000000 20.000000
v -40.000000 15.000000 10.000000
v -70.000000 10.000000 30.000000
v -70.000000 15.000000 30.000000
v -70.000000 15.000000 20.000000
v -60.000000 15.000000 30.000000
v -60.000000 15.000000 20.000000
v -50.000000 15.000000 30.000000
v -40.000000 10.000000 30.000000
v -30.000000 10.000000 20.000000
v -40.000000 15.000000 30.000000
v -30.000000 15.000000 20.000000
v -30.000000 15.000000 30.000000
v -70.000000 10.000000 -20.000000
v -60.000000 10.000000 -10.000000
v -40.000000 10.000000 -10.000000
v -70.000000 10.000000 -10.000000
v -60.000000 10.000000 0.000000
v -50.000000 10.000000 10.000000
v -40.000000 10.000000 0.000000
v -30.000000 10.000000 0.000000
v -30.000000 10.000000 10.000000
v -50.000000 10.000000 20.000000
v -40.000000 10.000000 20.000000
v -70.000000 10.000000 20.000000
v -60.000000 10.000000 30.000000
v -30.000000 10.000000 30.000000
v -50.000000 10.000000 30.000000
vn 0.0000 0.0000 -1.0000
vn 0.0000 1.0000 0.0000
vn -1.0000 0.0000 0.0000
vn 0.0000 0.0000 1.0000
vn 0.0000 -1.0000 0.0000
vn 1.0000 0.0000 0.0000
usemtl None
s off
f 72//7 73//7 70//7 69//7
f 81//8 80//8 79//8 78//8
f 62//9 63//9 106//9 109//9
f 63//7 65//7 61//7 106//7
f 76//10 62//10 109//10 107//10
f 109//11 106//11 61//11 107//11
f 76//8 65//8 63//8 62//8
f 65//7 66//7 67//7 61//7
f 66//12 68//12 64//12 67//12
f 68//10 76//10 107//10 64//10
f 107//11 61//11 67//11 64//11
f 68//8 66//8 65//8 76//8
f 66//7 72//7 69//7 67//7
f 79//10 68//10 64//10 108//10
f 64//11 67//11 69//11 108//11
f 79//8 72//8 66//8 68//8
f 73//12 80//12 71//12 70//12
f 80//10 79//10 108//10 71//10
f 108//11 69//11 70//11 71//11
f 80//8 73//8 72//8 79//8
f 74//9 62//9 109//9 82//9
f 76//9 107//9 110//9 75//9
f 82//11 109//11 107//11 110//11
f 75//8 76//8 62//8 74//8
f 110//11 107//11 64//11 77//11
f 86//8 68//8 76//8 75//8
f 79//9 108//9 112//9 78//9
f 77//11 64//11 108//11 112//11
f 78//8 79//8 68//8 86//8
f 80//12 81//12 113//12 71//12
f 112//11 108//11 71//11 113//11
f 84//9 74//9 82//9 88//9
f 75//9 110//9 83//9 90//9
f 90//7 83//7 88//7 84//7
f 88//11 82//11 110//11 83//11
f 90//8 75//8 74//8 84//8
f 83//11 110//11 77//11 111//11
f 92//8 86//8 75//8 90//8
f 78//9 112//9 85//9 94//9
f 111//11 77//11 112//11 85//11
f 94//8 78//8 86//8 92//8
f 81//12 87//12 114//12 113//12
f 87//7 114//7 85//7 94//7
f 85//11 112//11 113//11 114//11
f 87//8 81//8 78//8 94//8
f 97//9 84//9 88//9 117//9
f 90//9 83//9 89//9 99//9
f 117//11 88//11 83//11 89//11
f 99//8 90//8 84//8 97//8
f 89//11 83//11 111//11 115//11
f 91//8 92//8 90//8 99//8
f 94//12 93//12 116//12 85//12
f 93//7 116//7 115//7 91//7
f 115//11 111//11 85//11 116//11
f 93//8 94//8 92//8 91//8
f 87//12 104//12 102//12 114//12
f 116//11 85//11 114//11 102//11
f 104//8 87//8 94//8 93//8
f 96//9 97//9 117//9 95//9
f 99//9 89//9 118//9 98//9
f 98//10 96//10 95//10 118//10
f 95//11 117//11 89//11 118//11
f 98//8 99//8 97//8 96//8
f 91//9 115//9 120//9 100//9
f 100//10 98//10 118//10 120//10
f 118//11 89//11 115//11 120//11
f 100//8 91//8 99//8 98//8
f 93//12 103//12 101//12 116//12
f 103//10 100//10 120//10 101//10
f 120//11 115//11 116//11 101//11
f 103//8 93//8 91//8 100//8
f 104//12 105//12 119//12 102//12
f 105//10 103//10 101//10 119//10
f 101//11 116//11 102//11 119//11
f 105//8 104//8 93//8 103//8
