# Blender v2.78 (sub 0) OBJ File: 'Building C F1.blend'
# www.blender.org
mtllib Building C F1.mtl
o Cube.001_Cube.000
v 50.000000 0.000000 -20.000000
v 50.000000 0.000000 -10.000000
v 40.000000 5.000000 -10.000000
v 60.000000 0.000000 -10.000000
v 60.000000 5.000000 -20.000000
v 70.000000 5.000000 -20.000000
v 80.000000 0.000000 -20.000000
v 80.000000 0.000000 -10.000000
v 80.000000 5.000000 -20.000000
v 39.965897 0.000000 0.000000
v 40.000000 5.000000 0.000000
v 50.000000 5.000000 0.000000
v 60.000000 0.000000 0.000000
v 70.000000 0.000000 0.000000
v 60.000000 5.000000 -10.000000
v 70.000000 0.000000 -10.000000
v 49.965897 0.000000 0.000000
v 50.000000 0.000000 10.000000
v 60.000000 5.000000 10.000000
v 60.000000 5.000000 0.000000
v 80.000000 0.000000 0.000000
v 80.000000 0.000000 10.000000
v 70.000000 5.000000 10.000000
v 40.000000 0.000000 10.000000
v 40.000000 5.000000 10.000000
v 50.000000 5.000000 10.000000
v 60.000000 0.000000 10.000000
v 70.000000 0.000000 10.000000
v 80.000000 5.000000 10.000000
v 40.000000 5.000000 -20.000000
v 50.000000 5.000000 -20.000000
v 50.000000 5.000000 -10.000000
v 70.000000 5.000000 0.000000
v 70.000000 5.000000 -10.000000
v 80.000000 5.000000 -10.000000
v 80.000000 5.000000 0.000000
v 70.000000 0.000000 -20.000000
v 60.000000 0.000000 -20.000000
v 40.000000 0.000000 -20.000000
v 40.000000 0.000000 -10.000000
v 42.500000 5.000000 -12.500000
v 42.500000 5.000000 -17.500000
v 47.500000 5.000000 -17.500000
v 47.500000 5.000000 -12.500000
v 50.000000 1.000000 -20.000000
v 50.000000 1.000000 -10.000000
v 40.000000 1.000000 -20.000000
v 40.000000 1.000000 -10.000000
v 60.000000 4.000000 -20.000000
v 60.000000 3.000000 -20.000000
v 60.000000 2.000000 -20.000000
v 60.000000 1.000000 -20.000000
v 62.000000 5.000000 -20.000000
v 64.000000 5.000000 -20.000000
v 66.000000 5.000000 -20.000000
v 68.000000 5.000000 -20.000000
v 70.000000 4.000000 -20.000000
v 70.000000 3.000000 -20.000000
v 70.000000 2.000000 -20.000000
v 70.000000 1.000000 -20.000000
v 68.000000 0.000000 -20.000000
v 66.000000 0.000000 -20.000000
v 64.000000 0.000000 -20.000000
v 62.000000 0.000000 -20.000000
v 62.000000 4.000000 -20.000000
v 62.000000 3.000000 -20.000000
v 62.000000 2.000000 -20.000000
v 62.000000 1.000000 -20.000000
v 64.000000 4.000000 -20.000000
v 64.000000 3.000000 -20.000000
v 64.000000 2.000000 -20.000000
v 64.000000 1.000000 -20.000000
v 66.000000 4.000000 -20.000000
v 66.000000 3.000000 -20.000000
v 66.000000 2.000000 -20.000000
v 66.000000 1.000000 -20.000000
v 68.000000 4.000000 -20.000000
v 68.000000 3.000000 -20.000000
v 68.000000 2.000000 -20.000000
v 68.000000 1.000000 -20.000000
vn 0.0000 0.0000 -1.0000
vn 0.0000 -1.0000 0.0000
vn 0.0000 1.0000 0.0000
vn 1.0000 0.0000 0.0000
vn 0.0000 0.0000 1.0000
vn -1.0000 0.0034 -0.0017
vn -1.0000 0.0034 0.0017
vn 1.0000 -0.0034 0.0017
vn 1.0000 -0.0034 -0.0017
vn -1.0000 0.0000 0.0000
usemtl None
s off
f 45//1 47//1 30//1 31//1
f 32//1 46//1 48//1 3//1
f 40//2 2//2 17//2 10//2
f 31//1 5//1 49//1 50//1 51//1 52//1 38//1 1//1
f 2//2 1//2 38//2 4//2
f 15//3 5//3 31//3 32//3
f 80//1 60//1 37//1 61//1
f 4//2 38//2 64//2 63//2 62//2 61//2 37//2 16//2
f 34//3 6//3 56//3 55//3 54//3 53//3 5//3 15//3
f 6//1 9//1 7//1 37//1 60//1 59//1 58//1 57//1
f 9//4 35//4 8//4 7//4
f 16//2 37//2 7//2 8//2
f 35//3 9//3 6//3 34//3
f 4//2 13//2 17//2 2//2
f 32//3 12//3 20//3 15//3
f 13//2 4//2 16//2 14//2
f 33//3 34//3 15//3 20//3
f 35//4 36//4 21//4 8//4
f 14//2 16//2 8//2 21//2
f 36//3 35//3 34//3 33//3
f 25//5 24//5 18//5 26//5
f 19//5 26//5 18//5 27//5
f 18//2 17//2 13//2 27//2
f 3//3 11//3 12//3 32//3
f 23//5 19//5 27//5 28//5
f 27//2 13//2 14//2 28//2
f 23//3 33//3 20//3 19//3
f 36//4 29//4 22//4 21//4
f 29//5 23//5 28//5 22//5
f 28//2 14//2 21//2 22//2
f 29//3 36//3 33//3 23//3
f 40//6 10//6 11//6 3//6
f 19//3 20//3 12//3 26//3
f 11//3 25//3 26//3 12//3
f 24//2 10//2 17//2 18//2
f 48//2 47//2 45//2 46//2
f 2//1 40//1 48//1 46//1
f 25//7 11//7 10//7 24//7
f 2//8 32//8 12//8 17//8
f 12//9 26//9 18//9 17//9
f 32//3 31//3 43//3 44//3
f 3//3 41//3 42//3 30//3
f 30//3 42//3 43//3 31//3
f 3//3 32//3 44//3 41//3
f 39//5 1//5 45//5 47//5
f 1//10 2//10 46//10 45//10
f 52//1 68//1 64//1 38//1
f 68//1 72//1 63//1 64//1
f 72//1 76//1 62//1 63//1
f 76//1 80//1 61//1 62//1
f 5//1 53//1 65//1 49//1
f 49//1 65//1 66//1 50//1
f 50//1 66//1 67//1 51//1
f 51//1 67//1 68//1 52//1
f 53//1 54//1 69//1 65//1
f 65//1 69//1 70//1 66//1
f 66//1 70//1 71//1 67//1
f 67//1 71//1 72//1 68//1
f 54//1 55//1 73//1 69//1
f 69//1 73//1 74//1 70//1
f 70//1 74//1 75//1 71//1
f 71//1 75//1 76//1 72//1
f 55//1 56//1 77//1 73//1
f 73//1 77//1 78//1 74//1
f 74//1 78//1 79//1 75//1
f 75//1 79//1 80//1 76//1
f 56//1 6//1 57//1 77//1
f 77//1 57//1 58//1 78//1
f 78//1 58//1 59//1 79//1
f 79//1 59//1 60//1 80//1
o Cube.000_Cube.002
v 50.000000 0.000000 -20.000000
v 50.000000 0.000000 -10.000000
v 40.000000 5.000000 -10.000000
v 60.000000 0.000000 -10.000000
v 60.000000 5.000000 -20.000000
v 70.000000 5.000000 -20.000000
v 80.000000 0.000000 -20.000000
v 80.000000 0.000000 -10.000000
v 80.000000 5.000000 -20.000000
v 39.965897 0.000000 0.000000
v 40.000000 5.000000 0.000000
v 50.000000 5.000000 0.000000
v 60.000000 0.000000 0.000000
v 70.000000 0.000000 0.000000
v 60.000000 5.000000 -10.000000
v 70.000000 0.000000 -10.000000
v 49.965897 0.000000 0.000000
v 50.000000 0.000000 10.000000
v 60.000000 5.000000 10.000000
v 60.000000 5.000000 0.000000
v 80.000000 0.000000 0.000000
v 80.000000 0.000000 10.000000
v 70.000000 5.000000 10.000000
v 40.000000 0.000000 10.000000
v 40.000000 5.000000 10.000000
v 50.000000 5.000000 10.000000
v 60.000000 0.000000 10.000000
v 70.000000 0.000000 10.000000
v 80.000000 5.000000 10.000000
v 40.000000 5.000000 -20.000000
v 50.000000 5.000000 -20.000000
v 50.000000 5.000000 -10.000000
v 70.000000 5.000000 0.000000
v 70.000000 5.000000 -10.000000
v 80.000000 5.000000 -10.000000
v 80.000000 5.000000 0.000000
v 70.000000 0.000000 -20.000000
v 60.000000 0.000000 -20.000000
v 40.000000 0.000000 -20.000000
v 40.000000 0.000000 -10.000000
v 42.500000 5.000000 -12.500000
v 42.500000 5.000000 -17.500000
v 47.500000 5.000000 -17.500000
v 47.500000 5.000000 -12.500000
v 50.000000 1.000000 -20.000000
v 50.000000 1.000000 -10.000000
v 40.000000 1.000000 -20.000000
v 40.000000 1.000000 -10.000000
v 60.000000 4.000000 -20.000000
v 60.000000 3.000000 -20.000000
v 60.000000 2.000000 -20.000000
v 60.000000 1.000000 -20.000000
v 62.000000 5.000000 -20.000000
v 64.000000 5.000000 -20.000000
v 66.000000 5.000000 -20.000000
v 68.000000 5.000000 -20.000000
v 70.000000 4.000000 -20.000000
v 70.000000 3.000000 -20.000000
v 70.000000 2.000000 -20.000000
v 70.000000 1.000000 -20.000000
v 68.000000 0.000000 -20.000000
v 66.000000 0.000000 -20.000000
v 64.000000 0.000000 -20.000000
v 62.000000 0.000000 -20.000000
v 62.000000 4.000000 -20.000000
v 62.000000 3.000000 -20.000000
v 62.000000 2.000000 -20.000000
v 62.000000 1.000000 -20.000000
v 64.000000 4.000000 -20.000000
v 64.000000 3.000000 -20.000000
v 64.000000 2.000000 -20.000000
v 64.000000 1.000000 -20.000000
v 66.000000 4.000000 -20.000000
v 66.000000 3.000000 -20.000000
v 66.000000 2.000000 -20.000000
v 66.000000 1.000000 -20.000000
v 68.000000 4.000000 -20.000000
v 68.000000 3.000000 -20.000000
v 68.000000 2.000000 -20.000000
v 68.000000 1.000000 -20.000000
vn 0.0000 0.0000 1.0000
vn 0.0000 1.0000 0.0000
vn 0.0000 -1.0000 0.0000
vn -1.0000 0.0000 0.0000
vn 0.0000 0.0000 -1.0000
vn 1.0000 -0.0034 0.0017
vn 1.0000 -0.0034 -0.0017
vn -1.0000 0.0034 -0.0017
vn -1.0000 0.0034 0.0017
vn 1.0000 0.0000 0.0000
usemtl None
s off
f 125//11 111//11 110//11 127//11
f 112//11 83//11 128//11 126//11
f 120//12 90//12 97//12 82//12
f 111//11 81//11 118//11 132//11 131//11 130//11 129//11 85//11
f 82//12 84//12 118//12 81//12
f 95//13 112//13 111//13 85//13
f 160//11 141//11 117//11 140//11
f 84//12 96//12 117//12 141//12 142//12 143//12 144//12 118//12
f 114//13 95//13 85//13 133//13 134//13 135//13 136//13 86//13
f 86//11 137//11 138//11 139//11 140//11 117//11 87//11 89//11
f 89//14 87//14 88//14 115//14
f 96//12 88//12 87//12 117//12
f 115//13 114//13 86//13 89//13
f 84//12 82//12 97//12 93//12
f 112//13 95//13 100//13 92//13
f 93//12 94//12 96//12 84//12
f 113//13 100//13 95//13 114//13
f 115//14 88//14 101//14 116//14
f 94//12 101//12 88//12 96//12
f 116//13 113//13 114//13 115//13
f 105//15 106//15 98//15 104//15
f 99//15 107//15 98//15 106//15
f 98//12 107//12 93//12 97//12
f 83//13 112//13 92//13 91//13
f 103//15 108//15 107//15 99//15
f 107//12 108//12 94//12 93//12
f 103//13 99//13 100//13 113//13
f 116//14 101//14 102//14 109//14
f 109//15 102//15 108//15 103//15
f 108//12 102//12 101//12 94//12
f 109//13 103//13 113//13 116//13
f 120//16 83//16 91//16 90//16
f 99//13 106//13 92//13 100//13
f 91//13 92//13 106//13 105//13
f 104//12 98//12 97//12 90//12
f 128//12 126//12 125//12 127//12
f 82//11 126//11 128//11 120//11
f 105//17 104//17 90//17 91//17
f 82//18 97//18 92//18 112//18
f 92//19 97//19 98//19 106//19
f 112//13 124//13 123//13 111//13
f 83//13 110//13 122//13 121//13
f 110//13 111//13 123//13 122//13
f 83//13 121//13 124//13 112//13
f 119//15 127//15 125//15 81//15
f 81//20 125//20 126//20 82//20
f 132//11 118//11 144//11 148//11
f 148//11 144//11 143//11 152//11
f 152//11 143//11 142//11 156//11
f 156//11 142//11 141//11 160//11
f 85//11 129//11 145//11 133//11
f 129//11 130//11 146//11 145//11
f 130//11 131//11 147//11 146//11
f 131//11 132//11 148//11 147//11
f 133//11 145//11 149//11 134//11
f 145//11 146//11 150//11 149//11
f 146//11 147//11 151//11 150//11
f 147//11 148//11 152//11 151//11
f 134//11 149//11 153//11 135//11
f 149//11 150//11 154//11 153//11
f 150//11 151//11 155//11 154//11
f 151//11 152//11 156//11 155//11
f 135//11 153//11 157//11 136//11
f 153//11 154//11 158//11 157//11
f 154//11 155//11 159//11 158//11
f 155//11 156//11 160//11 159//11
f 136//11 157//11 137//11 86//11
f 157//11 158//11 138//11 137//11
f 158//11 159//11 139//11 138//11
f 159//11 160//11 140//11 139//11
