# Blender v2.78 (sub 0) OBJ File: 'Building B_D B1.blend'
# www.blender.org
mtllib Building B_D B1.mtl
o Cube.001_Cube.000
v -10.000000 0.000000 80.000000
v -10.000000 0.000000 30.000000
v -30.000000 0.000000 10.000000
v -30.000000 0.000000 -10.000000
v -40.000000 0.000000 -20.000000
v -70.000000 0.000000 -20.000000
v -60.000000 0.000000 -10.000000
v -50.000000 0.000000 -20.000000
v -40.000000 0.000000 -10.000000
v -30.000000 0.000000 -20.000000
v -70.000000 0.000000 -10.000000
v -60.000000 0.000000 0.000000
v -50.000000 0.000000 0.000000
v -30.000000 0.000000 0.000000
v -40.000000 0.000000 0.000000
v -70.000000 0.000000 20.000000
v -70.000000 0.000000 10.000000
v -60.000000 0.000000 20.000000
v -50.000000 0.000000 20.000000
v -70.000000 -5.000000 -10.000000
v -70.000000 -5.000000 -20.000000
v -60.000000 -5.000000 -20.000000
v -50.000000 -5.000000 -20.000000
v -50.000000 -5.000000 -10.000000
v -60.000000 0.000000 -20.000000
v -40.000000 -5.000000 -10.000000
v -40.000000 -5.000000 -20.000000
v -30.000000 -5.000000 -20.000000
v -30.000000 -5.000000 -10.000000
v -70.000000 -5.000000 0.000000
v -60.000000 -5.000000 -10.000000
v -50.000000 0.000000 -10.000000
v -50.000000 -5.000000 0.000000
v -30.000000 -5.000000 0.000000
v -70.000000 0.000000 0.000000
v -60.000000 -5.000000 0.000000
v -60.000000 0.000000 10.000000
v -40.000000 -5.000000 10.000000
v -40.000000 -5.000000 0.000000
v -30.000000 -5.000000 10.000000
v -70.000000 -5.000000 20.000000
v -70.000000 -5.000000 10.000000
v -60.000000 -5.000000 10.000000
v -50.000000 -5.000000 20.000000
v -50.000000 -5.000000 10.000000
v -50.000000 0.000000 10.000000
v -40.000000 -5.000000 20.000000
v -40.000000 0.000000 20.000000
v -40.000000 0.000000 10.000000
v -60.000000 -5.000000 20.000000
v -40.000000 -5.000000 30.000000
v -30.000000 -5.000000 20.000000
v -40.000000 0.000000 30.000000
v -30.000000 0.000000 20.000000
v -10.000000 0.000000 40.000000
v -20.000000 0.000000 60.000000
v -10.000000 0.000000 60.000000
v -10.000000 0.000000 70.000000
v -20.000000 0.000000 30.000000
v -20.000000 0.000000 80.000000
v -70.000000 0.000000 30.000000
v -60.000000 0.000000 30.000000
v -70.000000 0.000000 40.000000
v -70.000000 0.000000 60.000000
v -60.000000 0.000000 50.000000
v -60.000000 0.000000 60.000000
v -50.000000 0.000000 40.000000
v -40.000000 0.000000 70.000000
v -50.000000 0.000000 60.000000
v -40.000000 0.000000 60.000000
v -30.000000 0.000000 60.000000
v -30.000000 0.000000 70.000000
v -20.000000 -5.000000 40.000000
v -20.000000 -5.000000 70.000000
v -10.000000 -5.000000 80.000000
v -30.000000 -5.000000 40.000000
v -30.000000 -5.000000 60.000000
v -20.000000 -5.000000 80.000000
v -60.000000 -5.000000 30.000000
v -70.000000 -5.000000 80.000000
v -70.000000 -5.000000 70.000000
v -50.000000 -5.000000 30.000000
v -50.000000 -5.000000 50.000000
v -40.000000 -5.000000 60.000000
v -50.000000 -5.000000 60.000000
v -40.000000 -5.000000 70.000000
v -40.000000 -5.000000 80.000000
v -50.000000 -5.000000 70.000000
v -30.000000 -5.000000 50.000000
v -20.000000 -5.000000 30.000000
v -10.000000 -5.000000 30.000000
v -10.000000 -5.000000 40.000000
v -20.000000 -5.000000 50.000000
v -10.000000 -5.000000 50.000000
v -20.000000 -5.000000 60.000000
v -10.000000 -5.000000 60.000000
v -10.000000 0.000000 50.000000
v -10.000000 -5.000000 70.000000
v -20.000000 0.000000 70.000000
v -30.000000 -5.000000 30.000000
v -30.000000 0.000000 40.000000
v -20.000000 0.000000 40.000000
v -30.000000 0.000000 50.000000
v -20.000000 0.000000 50.000000
v -30.000000 -5.000000 70.000000
v -70.000000 -5.000000 40.000000
v -70.000000 -5.000000 30.000000
v -60.000000 -5.000000 40.000000
v -70.000000 -5.000000 50.000000
v -60.000000 -5.000000 50.000000
v -70.000000 0.000000 50.000000
v -70.000000 -5.000000 60.000000
v -70.000000 0.000000 70.000000
v -60.000000 -5.000000 80.000000
v -70.000000 0.000000 80.000000
v -60.000000 0.000000 80.000000
v -50.000000 -5.000000 40.000000
v -40.000000 -5.000000 40.000000
v -40.000000 -5.000000 50.000000
v -40.000000 0.000000 40.000000
v -50.000000 0.000000 50.000000
v -50.000000 -5.000000 80.000000
v -50.000000 0.000000 70.000000
v -40.000000 0.000000 80.000000
v -60.000000 0.000000 40.000000
v -50.000000 0.000000 30.000000
v -60.000000 -5.000000 70.000000
v -60.000000 -5.000000 60.000000
v -60.000000 0.000000 70.000000
v -50.000000 0.000000 80.000000
v -30.000000 0.000000 30.000000
v -40.000000 0.000000 50.000000
v -30.000000 -5.000000 80.000000
v -30.000000 0.000000 80.000000
v -10.000000 0.000000 42.000000
v -10.000000 0.000000 44.000000
v -10.000000 0.000000 46.000000
v -10.000000 0.000000 48.000000
v -38.000000 0.000000 30.000000
v -36.000000 0.000000 30.000000
v -34.000000 0.000000 30.000000
v -32.000000 0.000000 30.000000
v -38.000000 0.000000 40.000000
v -36.000000 0.000000 40.000000
v -34.000000 0.000000 40.000000
v -32.000000 0.000000 40.000000
v -58.000000 0.000000 -20.000000
v -56.000000 0.000000 -20.000000
v -54.000000 0.000000 -20.000000
v -52.000000 0.000000 -20.000000
vn 0.0000 -1.0000 0.0000
vn 1.0000 0.0000 0.0000
vn 0.0000 0.0000 1.0000
vn 0.0000 1.0000 0.0000
vn -1.0000 0.0000 0.0000
vn 0.0000 0.0000 -1.0000
usemtl None
s off
f 11//1 6//1 25//1 7//1
f 7//1 25//1 147//1 148//1 149//1 150//1 8//1 32//1
f 32//1 8//1 5//1 9//1
f 35//1 11//1 7//1 12//1
f 12//1 7//1 32//1 13//1
f 13//1 32//1 9//1 15//1
f 15//1 9//1 4//1 14//1
f 17//1 35//1 12//1 37//1
f 37//1 12//1 13//1 46//1
f 46//1 13//1 15//1 49//1
f 49//1 15//1 14//1 3//1
f 16//1 17//1 37//1 18//1
f 18//1 37//1 46//1 19//1
f 19//1 46//1 49//1 48//1
f 48//1 49//1 3//1 54//1
f 61//1 16//1 18//1 62//1
f 62//1 18//1 19//1 126//1
f 126//1 19//1 48//1 53//1
f 53//1 48//1 54//1 131//1 142//1 141//1 140//1 139//1
f 11//2 20//2 21//2 6//2
f 6//3 21//3 22//3 25//3
f 20//4 31//4 22//4 21//4
f 25//3 22//3 23//3 8//3 150//3 149//3 148//3 147//3
f 31//4 24//4 23//4 22//4
f 8//3 23//3 27//3 5//3
f 24//4 26//4 27//4 23//4
f 5//3 27//3 28//3 10//3
f 10//5 28//5 29//5 4//5
f 26//4 29//4 28//4 27//4
f 35//2 30//2 20//2 11//2
f 30//4 36//4 31//4 20//4
f 36//4 33//4 24//4 31//4
f 33//4 39//4 26//4 24//4
f 4//5 29//5 34//5 14//5
f 39//4 34//4 29//4 26//4
f 17//2 42//2 30//2 35//2
f 42//4 43//4 36//4 30//4
f 43//4 45//4 33//4 36//4
f 45//4 38//4 39//4 33//4
f 14//5 34//5 40//5 3//5
f 38//4 40//4 34//4 39//4
f 16//2 41//2 42//2 17//2
f 41//4 50//4 43//4 42//4
f 50//4 44//4 45//4 43//4
f 44//4 47//4 38//4 45//4
f 3//5 40//5 52//5 54//5
f 47//4 52//4 40//4 38//4
f 61//2 107//2 41//2 16//2
f 107//4 79//4 50//4 41//4
f 79//4 82//4 44//4 50//4
f 82//4 51//4 47//4 44//4
f 54//5 52//5 100//5 131//5
f 51//4 100//4 52//4 47//4
f 102//1 59//1 2//1 55//1
f 104//1 102//1 55//1 135//1 136//1 137//1 138//1 97//1
f 56//1 104//1 97//1 57//1
f 99//1 56//1 57//1 58//1
f 60//1 99//1 58//1 1//1
f 101//1 131//1 59//1 102//1
f 103//1 101//1 102//1 104//1
f 71//1 103//1 104//1 56//1
f 72//1 71//1 56//1 99//1
f 134//1 72//1 99//1 60//1
f 63//1 61//1 62//1 125//1
f 111//1 63//1 125//1 65//1
f 64//1 111//1 65//1 66//1
f 113//1 64//1 66//1 129//1
f 115//1 113//1 129//1 116//1
f 67//1 126//1 53//1 120//1
f 121//1 67//1 120//1 132//1
f 69//1 121//1 132//1 70//1
f 123//1 69//1 70//1 68//1
f 130//1 123//1 68//1 124//1
f 125//1 62//1 126//1 67//1
f 65//1 125//1 67//1 121//1
f 66//1 65//1 121//1 69//1
f 129//1 66//1 69//1 123//1
f 116//1 129//1 123//1 130//1
f 120//1 53//1 139//1 140//1 141//1 142//1 131//1 101//1 146//1 145//1 144//1 143//1
f 132//1 120//1 143//1 144//1 145//1 146//1 101//1 103//1
f 70//1 132//1 103//1 71//1
f 68//1 70//1 71//1 72//1
f 124//1 68//1 72//1 134//1
f 92//4 91//4 90//4 73//4
f 94//4 92//4 73//4 93//4
f 96//4 94//4 93//4 95//4
f 98//4 96//4 95//4 74//4
f 75//4 98//4 74//4 78//4
f 73//4 90//4 100//4 76//4
f 93//4 73//4 76//4 89//4
f 95//4 93//4 89//4 77//4
f 74//4 95//4 77//4 105//4
f 78//4 74//4 105//4 133//4
f 108//4 79//4 107//4 106//4
f 110//4 108//4 106//4 109//4
f 128//4 110//4 109//4 112//4
f 127//4 128//4 112//4 81//4
f 114//4 127//4 81//4 80//4
f 118//4 51//4 82//4 117//4
f 119//4 118//4 117//4 83//4
f 84//4 119//4 83//4 85//4
f 86//4 84//4 85//4 88//4
f 87//4 86//4 88//4 122//4
f 117//4 82//4 79//4 108//4
f 83//4 117//4 108//4 110//4
f 85//4 83//4 110//4 128//4
f 88//4 85//4 128//4 127//4
f 122//4 88//4 127//4 114//4
f 76//4 100//4 51//4 118//4
f 89//4 76//4 118//4 119//4
f 77//4 89//4 119//4 84//4
f 105//4 77//4 84//4 86//4
f 133//4 105//4 86//4 87//4
f 59//3 90//3 91//3 2//3
f 2//5 91//5 92//5 55//5
f 55//5 92//5 94//5 97//5 138//5 137//5 136//5 135//5
f 97//5 94//5 96//5 57//5
f 57//5 96//5 98//5 58//5
f 58//5 98//5 75//5 1//5
f 1//6 75//6 78//6 60//6
f 131//3 100//3 90//3 59//3
f 60//6 78//6 133//6 134//6
f 63//2 106//2 107//2 61//2
f 111//2 109//2 106//2 63//2
f 64//2 112//2 109//2 111//2
f 113//2 81//2 112//2 64//2
f 129//6 127//6 81//6 113//6
f 115//2 80//2 81//2 113//2
f 129//2 116//2 114//2 127//2
f 116//6 114//6 80//6 115//6
f 124//6 87//6 122//6 130//6
f 130//6 122//6 114//6 116//6
f 134//6 133//6 87//6 124//6
o Cube.002
v -10.000000 0.000000 80.000000
v -10.000000 0.000000 30.000000
v -30.000000 0.000000 10.000000
v -30.000000 0.000000 -10.000000
v -40.000000 0.000000 -20.000000
v -70.000000 0.000000 -20.000000
v -60.000000 0.000000 -10.000000
v -50.000000 0.000000 -20.000000
v -40.000000 0.000000 -10.000000
v -30.000000 0.000000 -20.000000
v -70.000000 0.000000 -10.000000
v -60.000000 0.000000 0.000000
v -50.000000 0.000000 0.000000
v -30.000000 0.000000 0.000000
v -40.000000 0.000000 0.000000
v -70.000000 0.000000 20.000000
v -70.000000 0.000000 10.000000
v -60.000000 0.000000 20.000000
v -50.000000 0.000000 20.000000
v -70.000000 -5.000000 -10.000000
v -70.000000 -5.000000 -20.000000
v -60.000000 -5.000000 -20.000000
v -50.000000 -5.000000 -20.000000
v -50.000000 -5.000000 -10.000000
v -60.000000 0.000000 -20.000000
v -40.000000 -5.000000 -10.000000
v -40.000000 -5.000000 -20.000000
v -30.000000 -5.000000 -20.000000
v -30.000000 -5.000000 -10.000000
v -70.000000 -5.000000 0.000000
v -60.000000 -5.000000 -10.000000
v -50.000000 0.000000 -10.000000
v -50.000000 -5.000000 0.000000
v -30.000000 -5.000000 0.000000
v -70.000000 0.000000 0.000000
v -60.000000 -5.000000 0.000000
v -60.000000 0.000000 10.000000
v -40.000000 -5.000000 10.000000
v -40.000000 -5.000000 0.000000
v -30.000000 -5.000000 10.000000
v -70.000000 -5.000000 20.000000
v -70.000000 -5.000000 10.000000
v -60.000000 -5.000000 10.000000
v -50.000000 -5.000000 20.000000
v -50.000000 -5.000000 10.000000
v -50.000000 0.000000 10.000000
v -40.000000 -5.000000 20.000000
v -40.000000 0.000000 20.000000
v -40.000000 0.000000 10.000000
v -60.000000 -5.000000 20.000000
v -40.000000 -5.000000 30.000000
v -30.000000 -5.000000 20.000000
v -40.000000 0.000000 30.000000
v -30.000000 0.000000 20.000000
v -10.000000 0.000000 40.000000
v -20.000000 0.000000 60.000000
v -10.000000 0.000000 60.000000
v -10.000000 0.000000 70.000000
v -20.000000 0.000000 30.000000
v -20.000000 0.000000 80.000000
v -70.000000 0.000000 30.000000
v -60.000000 0.000000 30.000000
v -70.000000 0.000000 40.000000
v -70.000000 0.000000 60.000000
v -60.000000 0.000000 50.000000
v -60.000000 0.000000 60.000000
v -50.000000 0.000000 40.000000
v -40.000000 0.000000 70.000000
v -50.000000 0.000000 60.000000
v -40.000000 0.000000 60.000000
v -30.000000 0.000000 60.000000
v -30.000000 0.000000 70.000000
v -20.000000 -5.000000 40.000000
v -20.000000 -5.000000 70.000000
v -10.000000 -5.000000 80.000000
v -30.000000 -5.000000 40.000000
v -30.000000 -5.000000 60.000000
v -20.000000 -5.000000 80.000000
v -60.000000 -5.000000 30.000000
v -70.000000 -5.000000 80.000000
v -70.000000 -5.000000 70.000000
v -50.000000 -5.000000 30.000000
v -50.000000 -5.000000 50.000000
v -40.000000 -5.000000 60.000000
v -50.000000 -5.000000 60.000000
v -40.000000 -5.000000 70.000000
v -40.000000 -5.000000 80.000000
v -50.000000 -5.000000 70.000000
v -30.000000 -5.000000 50.000000
v -20.000000 -5.000000 30.000000
v -10.000000 -5.000000 30.000000
v -10.000000 -5.000000 40.000000
v -20.000000 -5.000000 50.000000
v -10.000000 -5.000000 50.000000
v -20.000000 -5.000000 60.000000
v -10.000000 -5.000000 60.000000
v -10.000000 0.000000 50.000000
v -10.000000 -5.000000 70.000000
v -20.000000 0.000000 70.000000
v -30.000000 -5.000000 30.000000
v -30.000000 0.000000 40.000000
v -20.000000 0.000000 40.000000
v -30.000000 0.000000 50.000000
v -20.000000 0.000000 50.000000
v -30.000000 -5.000000 70.000000
v -70.000000 -5.000000 40.000000
v -70.000000 -5.000000 30.000000
v -60.000000 -5.000000 40.000000
v -70.000000 -5.000000 50.000000
v -60.000000 -5.000000 50.000000
v -70.000000 0.000000 50.000000
v -70.000000 -5.000000 60.000000
v -70.000000 0.000000 70.000000
v -60.000000 -5.000000 80.000000
v -70.000000 0.000000 80.000000
v -60.000000 0.000000 80.000000
v -50.000000 -5.000000 40.000000
v -40.000000 -5.000000 40.000000
v -40.000000 -5.000000 50.000000
v -40.000000 0.000000 40.000000
v -50.000000 0.000000 50.000000
v -50.000000 -5.000000 80.000000
v -50.000000 0.000000 70.000000
v -40.000000 0.000000 80.000000
v -60.000000 0.000000 40.000000
v -50.000000 0.000000 30.000000
v -60.000000 -5.000000 70.000000
v -60.000000 -5.000000 60.000000
v -60.000000 0.000000 70.000000
v -50.000000 0.000000 80.000000
v -30.000000 0.000000 30.000000
v -40.000000 0.000000 50.000000
v -30.000000 -5.000000 80.000000
v -30.000000 0.000000 80.000000
v -10.000000 0.000000 42.000000
v -10.000000 0.000000 44.000000
v -10.000000 0.000000 46.000000
v -10.000000 0.000000 48.000000
v -38.000000 0.000000 30.000000
v -36.000000 0.000000 30.000000
v -34.000000 0.000000 30.000000
v -32.000000 0.000000 30.000000
v -38.000000 0.000000 40.000000
v -36.000000 0.000000 40.000000
v -34.000000 0.000000 40.000000
v -32.000000 0.000000 40.000000
v -58.000000 0.000000 -20.000000
v -56.000000 0.000000 -20.000000
v -54.000000 0.000000 -20.000000
v -52.000000 0.000000 -20.000000
vn 0.0000 1.0000 0.0000
vn -1.0000 0.0000 0.0000
vn 0.0000 0.0000 -1.0000
vn 0.0000 -1.0000 0.0000
vn 1.0000 0.0000 0.0000
vn 0.0000 0.0000 1.0000
usemtl None
s off
f 161//7 157//7 175//7 156//7
f 157//7 182//7 158//7 300//7 299//7 298//7 297//7 175//7
f 182//7 159//7 155//7 158//7
f 185//7 162//7 157//7 161//7
f 162//7 163//7 182//7 157//7
f 163//7 165//7 159//7 182//7
f 165//7 164//7 154//7 159//7
f 167//7 187//7 162//7 185//7
f 187//7 196//7 163//7 162//7
f 196//7 199//7 165//7 163//7
f 199//7 153//7 164//7 165//7
f 166//7 168//7 187//7 167//7
f 168//7 169//7 196//7 187//7
f 169//7 198//7 199//7 196//7
f 198//7 204//7 153//7 199//7
f 211//7 212//7 168//7 166//7
f 212//7 276//7 169//7 168//7
f 276//7 203//7 198//7 169//7
f 203//7 289//7 290//7 291//7 292//7 281//7 204//7 198//7
f 161//8 156//8 171//8 170//8
f 156//9 175//9 172//9 171//9
f 170//10 171//10 172//10 181//10
f 175//9 297//9 298//9 299//9 300//9 158//9 173//9 172//9
f 181//10 172//10 173//10 174//10
f 158//9 155//9 177//9 173//9
f 174//10 173//10 177//10 176//10
f 155//9 160//9 178//9 177//9
f 160//11 154//11 179//11 178//11
f 176//10 177//10 178//10 179//10
f 185//8 161//8 170//8 180//8
f 180//10 170//10 181//10 186//10
f 186//10 181//10 174//10 183//10
f 183//10 174//10 176//10 189//10
f 154//11 164//11 184//11 179//11
f 189//10 176//10 179//10 184//10
f 167//8 185//8 180//8 192//8
f 192//10 180//10 186//10 193//10
f 193//10 186//10 183//10 195//10
f 195//10 183//10 189//10 188//10
f 164//11 153//11 190//11 184//11
f 188//10 189//10 184//10 190//10
f 166//8 167//8 192//8 191//8
f 191//10 192//10 193//10 200//10
f 200//10 193//10 195//10 194//10
f 194//10 195//10 188//10 197//10
f 153//11 204//11 202//11 190//11
f 197//10 188//10 190//10 202//10
f 211//8 166//8 191//8 257//8
f 257//10 191//10 200//10 229//10
f 229//10 200//10 194//10 232//10
f 232//10 194//10 197//10 201//10
f 204//11 281//11 250//11 202//11
f 201//10 197//10 202//10 250//10
f 252//7 205//7 152//7 209//7
f 254//7 247//7 288//7 287//7 286//7 285//7 205//7 252//7
f 206//7 207//7 247//7 254//7
f 249//7 208//7 207//7 206//7
f 210//7 151//7 208//7 249//7
f 251//7 252//7 209//7 281//7
f 253//7 254//7 252//7 251//7
f 221//7 206//7 254//7 253//7
f 222//7 249//7 206//7 221//7
f 284//7 210//7 249//7 222//7
f 213//7 275//7 212//7 211//7
f 261//7 215//7 275//7 213//7
f 214//7 216//7 215//7 261//7
f 263//7 279//7 216//7 214//7
f 265//7 266//7 279//7 263//7
f 217//7 270//7 203//7 276//7
f 271//7 282//7 270//7 217//7
f 219//7 220//7 282//7 271//7
f 273//7 218//7 220//7 219//7
f 280//7 274//7 218//7 273//7
f 275//7 217//7 276//7 212//7
f 215//7 271//7 217//7 275//7
f 216//7 219//7 271//7 215//7
f 279//7 273//7 219//7 216//7
f 266//7 280//7 273//7 279//7
f 270//7 293//7 294//7 295//7 296//7 251//7 281//7 292//7 291//7 290//7 289//7 203//7
f 282//7 253//7 251//7 296//7 295//7 294//7 293//7 270//7
f 220//7 221//7 253//7 282//7
f 218//7 222//7 221//7 220//7
f 274//7 284//7 222//7 218//7
f 242//10 223//10 240//10 241//10
f 244//10 243//10 223//10 242//10
f 246//10 245//10 243//10 244//10
f 248//10 224//10 245//10 246//10
f 225//10 228//10 224//10 248//10
f 223//10 226//10 250//10 240//10
f 243//10 239//10 226//10 223//10
f 245//10 227//10 239//10 243//10
f 224//10 255//10 227//10 245//10
f 228//10 283//10 255//10 224//10
f 258//10 256//10 257//10 229//10
f 260//10 259//10 256//10 258//10
f 278//10 262//10 259//10 260//10
f 277//10 231//10 262//10 278//10
f 264//10 230//10 231//10 277//10
f 268//10 267//10 232//10 201//10
f 269//10 233//10 267//10 268//10
f 234//10 235//10 233//10 269//10
f 236//10 238//10 235//10 234//10
f 237//10 272//10 238//10 236//10
f 267//10 258//10 229//10 232//10
f 233//10 260//10 258//10 267//10
f 235//10 278//10 260//10 233//10
f 238//10 277//10 278//10 235//10
f 272//10 264//10 277//10 238//10
f 226//10 268//10 201//10 250//10
f 239//10 269//10 268//10 226//10
f 227//10 234//10 269//10 239//10
f 255//10 236//10 234//10 227//10
f 283//10 237//10 236//10 255//10
f 209//9 152//9 241//9 240//9
f 152//11 205//11 242//11 241//11
f 205//11 285//11 286//11 287//11 288//11 247//11 244//11 242//11
f 247//11 207//11 246//11 244//11
f 207//11 208//11 248//11 246//11
f 208//11 151//11 225//11 248//11
f 151//12 210//12 228//12 225//12
f 281//9 209//9 240//9 250//9
f 210//12 284//12 283//12 228//12
f 213//8 211//8 257//8 256//8
f 261//8 213//8 256//8 259//8
f 214//8 261//8 259//8 262//8
f 263//8 214//8 262//8 231//8
f 279//12 263//12 231//12 277//12
f 265//8 263//8 231//8 230//8
f 279//8 277//8 264//8 266//8
f 266//12 265//12 230//12 264//12
f 274//12 280//12 272//12 237//12
f 280//12 266//12 264//12 272//12
f 284//12 274//12 237//12 283//12
