# Blender v2.78 (sub 0) OBJ File: 'FileCabent Drawer (not Animated).blend'
# www.blender.org
mtllib FileCabent Drawer (not Animated).mtl
o Cube.011_Cube.024
v -0.751829 0.169188 0.860099
v -0.751829 0.169188 -0.860099
v 0.751829 0.169189 0.860099
v 0.751829 0.169189 -0.860099
v -0.813654 0.121734 0.919824
v -0.813654 1.364476 0.919824
v -0.813654 0.121734 -0.919824
v -0.813654 1.364476 -0.919824
v 0.813654 0.121734 0.919824
v 0.813654 1.364476 0.919824
v 0.813654 0.121734 -0.919824
v 0.813654 1.364476 -0.919824
v -0.751829 1.364476 -0.860099
v -0.751829 1.364476 0.860099
v 0.751829 1.364476 -0.860099
v 0.751829 1.364476 0.860099
v 0.751829 1.364476 -0.849931
v -0.840226 0.328224 0.182074
v -0.840226 0.468871 0.182074
v -0.840226 0.328224 -0.182074
v -0.840226 0.468871 -0.182074
v -0.867236 0.328224 0.182074
v -0.867236 0.468871 0.182074
v -0.867236 0.328224 -0.182074
v -0.867236 0.468871 -0.182074
v -0.846429 0.328224 -0.133044
v -0.846429 0.468871 -0.133044
v -0.780697 0.328224 -0.350563
v -0.780697 0.468871 -0.350563
v -0.867395 0.328224 -0.133044
v -0.867395 0.468871 -0.133044
v -0.802017 0.328224 -0.350563
v -0.802017 0.468871 -0.350563
v -0.828135 0.328224 -0.241804
v -0.846429 0.398548 -0.133044
v -0.828135 0.468871 -0.241804
v -0.780697 0.398548 -0.350563
v -0.791574 0.328224 -0.350563
v -0.791574 0.468871 -0.350563
v -0.802017 0.398548 -0.350563
v -0.849624 0.328224 -0.241804
v -0.849624 0.468871 -0.241804
v -0.867395 0.398548 -0.133044
v -0.857060 0.328224 -0.133044
v -0.857060 0.468871 -0.133044
v -0.839157 0.468871 -0.241804
v -0.839157 0.328224 -0.241804
v -0.857060 0.398548 -0.133044
v -0.849624 0.398548 -0.241804
v -0.791574 0.398548 -0.350563
v -0.828135 0.398548 -0.241804
v -0.842578 0.328224 -0.187424
v -0.846429 0.433709 -0.133044
v -0.807154 0.468871 -0.296184
v -0.780697 0.363386 -0.350563
v -0.786191 0.328224 -0.350563
v -0.796849 0.468871 -0.350563
v -0.802017 0.363386 -0.350563
v -0.828471 0.328224 -0.296184
v -0.867395 0.468871 -0.187424
v -0.867395 0.363386 -0.133044
v -0.862264 0.328224 -0.133044
v -0.851781 0.468871 -0.133044
v -0.807154 0.328224 -0.296184
v -0.846429 0.363386 -0.133044
v -0.842578 0.468871 -0.187424
v -0.780697 0.433709 -0.350563
v -0.796849 0.328224 -0.350563
v -0.786191 0.468871 -0.350563
v -0.802017 0.433709 -0.350563
v -0.867395 0.328224 -0.187424
v -0.828471 0.468871 -0.296184
v -0.867395 0.433709 -0.133044
v -0.851781 0.328224 -0.133044
v -0.862264 0.468871 -0.133044
v -0.855179 0.468871 -0.187424
v -0.818040 0.468871 -0.296184
v -0.844459 0.468871 -0.241804
v -0.833716 0.468871 -0.241804
v -0.855179 0.328224 -0.187424
v -0.818040 0.328224 -0.296184
v -0.833716 0.328224 -0.241804
v -0.844459 0.328224 -0.241804
v -0.851781 0.398548 -0.133044
v -0.862264 0.398548 -0.133044
v -0.857060 0.363386 -0.133044
v -0.857060 0.433709 -0.133044
v -0.867395 0.398548 -0.187424
v -0.828471 0.398548 -0.296184
v -0.849624 0.363386 -0.241804
v -0.849624 0.433709 -0.241804
v -0.796849 0.398548 -0.350563
v -0.786191 0.398548 -0.350563
v -0.791574 0.363386 -0.350563
v -0.791574 0.433709 -0.350563
v -0.807154 0.398548 -0.296184
v -0.842578 0.398548 -0.187424
v -0.828135 0.363386 -0.241804
v -0.828135 0.433709 -0.241804
v -0.842578 0.433709 -0.187424
v -0.842578 0.363386 -0.187424
v -0.807154 0.363386 -0.296184
v -0.786191 0.433709 -0.350563
v -0.786191 0.363386 -0.350563
v -0.796849 0.363386 -0.350563
v -0.828471 0.433709 -0.296184
v -0.828471 0.363386 -0.296184
v -0.867395 0.363386 -0.187424
v -0.862264 0.433709 -0.133044
v -0.862264 0.363386 -0.133044
v -0.851781 0.363386 -0.133044
v -0.823312 0.328224 -0.296184
v -0.812655 0.328224 -0.296184
v -0.848927 0.328224 -0.187424
v -0.812655 0.468871 -0.296184
v -0.823312 0.468871 -0.296184
v -0.861335 0.468871 -0.187424
v -0.848927 0.468871 -0.187424
v -0.861335 0.328224 -0.187424
v -0.851781 0.433709 -0.133044
v -0.867395 0.433709 -0.187424
v -0.796849 0.433709 -0.350563
v -0.807154 0.433709 -0.296184
v -0.846429 0.468871 0.129474
v -0.846429 0.328224 0.129474
v -0.780697 0.468871 0.346993
v -0.780697 0.328224 0.346993
v -0.867395 0.468871 0.129474
v -0.867395 0.328224 0.129474
v -0.802017 0.468871 0.346993
v -0.802017 0.328224 0.346993
v -0.828135 0.468871 0.238234
v -0.846429 0.398548 0.129474
v -0.828135 0.328224 0.238234
v -0.780697 0.398548 0.346993
v -0.791574 0.468871 0.346993
v -0.791574 0.328224 0.346993
v -0.802017 0.398548 0.346993
v -0.849624 0.468871 0.238234
v -0.849624 0.328224 0.238234
v -0.867395 0.398548 0.129474
v -0.857060 0.468871 0.129474
v -0.857060 0.328224 0.129474
v -0.839157 0.328224 0.238234
v -0.839157 0.468871 0.238234
v -0.857060 0.398548 0.129474
v -0.849624 0.398548 0.238234
v -0.791574 0.398548 0.346993
v -0.828135 0.398548 0.238234
v -0.842578 0.468871 0.183854
v -0.846429 0.363386 0.129474
v -0.807154 0.328224 0.292613
v -0.780697 0.433709 0.346993
v -0.786191 0.468871 0.346993
v -0.796849 0.328224 0.346993
v -0.802017 0.433709 0.346993
v -0.828471 0.468871 0.292613
v -0.867395 0.328224 0.183854
v -0.867395 0.433709 0.129474
v -0.862264 0.468871 0.129474
v -0.851781 0.328224 0.129474
v -0.807154 0.468871 0.292613
v -0.846429 0.433709 0.129474
v -0.842578 0.328224 0.183854
v -0.780697 0.363386 0.346993
v -0.796849 0.468871 0.346993
v -0.786191 0.328224 0.346993
v -0.802017 0.363386 0.346993
v -0.867395 0.468871 0.183854
v -0.828471 0.328224 0.292613
v -0.867395 0.363386 0.129474
v -0.851781 0.468871 0.129474
v -0.862264 0.328224 0.129474
v -0.855179 0.328224 0.183854
v -0.818040 0.328224 0.292613
v -0.844459 0.328224 0.238234
v -0.833716 0.328224 0.238234
v -0.855179 0.468871 0.183854
v -0.818040 0.468871 0.292613
v -0.833716 0.468871 0.238234
v -0.844459 0.468871 0.238234
v -0.851781 0.398548 0.129474
v -0.862264 0.398548 0.129474
v -0.857060 0.433709 0.129474
v -0.857060 0.363386 0.129474
v -0.867395 0.398548 0.183854
v -0.828471 0.398548 0.292613
v -0.849624 0.433709 0.238234
v -0.849624 0.363386 0.238234
v -0.796849 0.398548 0.346993
v -0.786191 0.398548 0.346993
v -0.791574 0.433709 0.346993
v -0.791574 0.363386 0.346993
v -0.807154 0.398548 0.292613
v -0.842578 0.398548 0.183854
v -0.828135 0.433709 0.238234
v -0.828135 0.363386 0.238234
v -0.842578 0.363386 0.183854
v -0.842578 0.433709 0.183854
v -0.807154 0.433709 0.292613
v -0.786191 0.363386 0.346993
v -0.786191 0.433709 0.346993
v -0.796849 0.433709 0.346993
v -0.828471 0.363386 0.292613
v -0.828471 0.433709 0.292613
v -0.867395 0.433709 0.183854
v -0.862264 0.363386 0.129474
v -0.862264 0.433709 0.129474
v -0.851781 0.433709 0.129474
v -0.823312 0.468871 0.292613
v -0.812655 0.468871 0.292613
v -0.848927 0.468871 0.183854
v -0.812655 0.328224 0.292613
v -0.823312 0.328224 0.292613
v -0.861335 0.328224 0.183854
v -0.848927 0.328224 0.183854
v -0.861335 0.468871 0.183854
v -0.851781 0.363386 0.129474
v -0.867395 0.363386 0.183854
v -0.796849 0.363386 0.346993
v -0.807154 0.363386 0.292613
v -0.847364 0.828199 0.296961
v -0.847364 1.201289 0.296961
v -0.847364 0.828199 -0.296961
v -0.847364 1.201289 -0.296961
v -0.797901 0.828199 0.296961
v -0.797901 1.201289 0.296961
v -0.797901 0.828199 -0.296961
v -0.797901 1.201289 -0.296961
v -0.807858 0.854664 0.269562
v -0.847364 0.854664 0.269562
v -0.797901 0.854664 -0.269562
v -0.847364 0.854664 -0.269562
v -0.807858 0.907556 0.269562
v -0.797901 1.174825 -0.269562
v -0.847364 1.174825 -0.269562
v -0.807858 1.174825 0.269562
v -0.847364 1.174825 0.269562
v -0.847364 0.828199 0.000000
v -0.847364 1.014744 0.296961
v -0.847364 1.201289 0.000000
v -0.847364 1.014744 -0.296961
v -0.822633 0.828199 -0.296961
v -0.822633 1.201289 -0.296961
v -0.797901 1.014744 -0.296961
v -0.797901 0.828199 0.000000
v -0.797901 1.201289 0.000000
v -0.797901 1.014744 0.296961
v -0.822633 0.828199 0.296961
v -0.822633 1.201289 0.296961
v -0.797901 0.854664 0.000000
v -0.847364 0.854664 0.000000
v -0.807858 0.881110 0.269562
v -0.847364 1.014744 0.269562
v -0.797901 1.014744 -0.269562
v -0.847364 1.014744 -0.269562
v -0.797901 1.174825 0.000000
v -0.847364 1.174825 0.000000
v -0.807858 1.041190 0.269562
v -0.822633 1.174825 -0.269562
v -0.822633 0.854664 0.269562
v -0.822633 1.174825 0.269562
v -0.822633 0.854664 -0.269562
v -0.797901 1.188057 -0.283261
v -0.797901 0.867878 0.283261
v -0.847364 0.841431 0.283261
v -0.847364 1.188057 -0.283261
v -0.822633 1.174825 0.000000
v -0.822633 0.854664 0.000000
v -0.822633 1.014744 -0.269562
v -0.822633 1.201289 0.000000
v -0.822633 0.828199 0.000000
v -0.822633 1.014744 0.296961
v -0.822633 1.014744 -0.296961
v -0.807858 0.867887 0.269562
v -0.847364 0.934704 0.269562
v -0.807858 0.974373 0.269562
v -0.810267 0.854664 0.269562
v -0.834999 1.174825 0.269562
v -0.807858 0.894333 0.269562
v -0.847364 1.094784 0.269562
v -0.807858 1.108007 0.269562
v -0.834999 0.854664 0.269562
v -0.810267 1.174825 0.269562
v -0.847364 1.014744 -0.269562
v -0.847364 0.854664 -0.269562
v -0.822633 0.854664 -0.269562
v -0.847364 1.174825 -0.269562
v -0.822633 1.174825 -0.269562
v -0.822633 1.014744 -0.269562
v -0.847364 1.014744 -0.239562
v -0.847364 0.854664 -0.239562
v -0.822633 0.854664 -0.239562
v -0.847364 1.174825 -0.239562
v -0.822633 1.174825 -0.239562
v -0.822633 1.014744 -0.239562
v -0.847364 1.144825 0.000000
v -0.847364 1.144825 0.269562
v -0.834999 1.144825 0.269562
v -0.847364 1.144825 -0.269562
v -0.822633 1.144825 -0.269562
v -0.822633 1.144825 0.000000
v -0.822633 1.144825 0.269562
v -0.847364 0.884664 0.000000
v -0.847364 0.884664 -0.269562
v -0.822633 0.884664 -0.269562
v -0.847364 0.884664 0.269562
v -0.834999 0.884664 0.269562
v -0.822633 0.884664 0.269562
v -0.822633 0.884664 0.000000
v -0.807858 0.867887 0.239562
v -0.807858 0.854664 0.239562
v -0.847364 0.934704 0.239562
v -0.847364 0.854664 0.239562
v -0.807858 0.974373 0.239562
v -0.807858 0.907556 0.239562
v -0.810267 0.854664 0.239562
v -0.834999 1.174825 0.239562
v -0.847364 1.174825 0.239562
v -0.807858 0.894333 0.239562
v -0.807858 0.881110 0.239562
v -0.847364 1.094784 0.239562
v -0.847364 1.014744 0.239562
v -0.807858 1.108007 0.239562
v -0.807858 1.041190 0.239562
v -0.834999 0.854664 0.239562
v -0.822633 0.854664 0.239562
v -0.810267 1.174825 0.239562
v -0.822633 1.174825 0.239562
v -0.807858 1.174825 0.239562
vn 1.0000 0.0000 0.0000
vn 0.0000 0.0000 1.0000
vn -1.0000 -0.0000 0.0000
vn 0.0000 0.0000 -1.0000
vn -0.0000 1.0000 0.0000
vn 0.0000 -1.0000 0.0000
vn 0.8992 0.0000 0.4375
vn -0.9320 0.0000 -0.3625
vn 0.9665 0.0000 0.2567
vn 0.9975 0.0000 0.0706
vn 0.9330 0.0000 0.3600
vn -0.8992 0.0000 -0.4375
vn -0.9505 0.0000 -0.3106
vn 0.8992 0.0000 -0.4375
vn -0.9320 0.0000 0.3625
vn 0.9665 0.0000 -0.2567
vn 0.9975 0.0000 -0.0706
vn 0.9330 0.0000 -0.3600
vn -0.8992 0.0000 0.4375
vn -0.9505 0.0000 0.3106
vn 0.9984 0.0558 -0.0130
vn 0.9911 -0.0588 -0.1192
usemtl None
s off
f 1//1 2//1 13//1 14//1
f 2//2 4//2 15//2 13//2
f 4//3 3//3 16//3 17//3 15//3
f 3//4 1//4 14//4 16//4
f 2//5 1//5 3//5 4//5
f 5//3 6//3 8//3 7//3
f 7//4 8//4 12//4 11//4
f 11//1 12//1 10//1 9//1
f 9//2 10//2 6//2 5//2
f 7//6 11//6 9//6 5//6
f 12//5 17//5 16//5 14//5 13//5 8//5 6//5 10//5
f 8//5 13//5 15//5 17//5 12//5
f 18//1 20//1 21//1 19//1
f 20//4 24//4 25//4 21//4
f 24//3 22//3 23//3 25//3
f 22//2 18//2 19//2 23//2
f 20//6 18//6 22//6 24//6
f 25//5 23//5 19//5 21//5
f 123//7 67//7 29//7 54//7
f 122//4 70//4 33//4 57//4
f 121//3 73//3 31//3 60//3
f 120//2 53//2 27//2 63//2
f 119//6 62//6 30//6 71//6
f 118//5 63//5 27//5 66//5
f 117//5 75//5 45//5 76//5
f 116//5 78//5 46//5 77//5
f 115//5 79//5 36//5 54//5
f 114//6 74//6 44//6 80//6
f 113//6 82//6 47//6 81//6
f 112//6 83//6 41//6 59//6
f 111//2 65//2 35//2 84//2
f 110//2 86//2 48//2 85//2
f 109//2 87//2 45//2 75//2
f 108//3 61//3 43//3 88//3
f 107//8 90//8 49//8 89//8
f 106//8 91//8 42//8 72//8
f 105//4 58//4 40//4 92//4
f 104//4 94//4 50//4 93//4
f 103//4 95//4 39//4 69//4
f 102//7 55//7 37//7 96//7
f 101//9 98//9 51//9 97//9
f 100//9 99//9 36//9 66//9
f 97//9 51//9 99//9 100//9
f 35//10 97//10 100//10 53//10
f 53//10 100//10 66//10 27//10
f 52//9 34//9 98//9 101//9
f 26//10 52//10 101//10 65//10
f 65//10 101//10 97//10 35//10
f 64//7 28//7 55//7 102//7
f 34//11 64//11 102//11 98//11
f 98//11 102//11 96//11 51//11
f 93//4 50//4 95//4 103//4
f 37//4 93//4 103//4 67//4
f 67//4 103//4 69//4 29//4
f 56//4 38//4 94//4 104//4
f 28//4 56//4 104//4 55//4
f 55//4 104//4 93//4 37//4
f 68//4 32//4 58//4 105//4
f 38//4 68//4 105//4 94//4
f 94//4 105//4 92//4 50//4
f 89//8 49//8 91//8 106//8
f 40//12 89//12 106//12 70//12
f 70//12 106//12 72//12 33//12
f 59//8 41//8 90//8 107//8
f 32//12 59//12 107//12 58//12
f 58//12 107//12 89//12 40//12
f 71//3 30//3 61//3 108//3
f 41//13 71//13 108//13 90//13
f 90//13 108//13 88//13 49//13
f 85//2 48//2 87//2 109//2
f 43//2 85//2 109//2 73//2
f 73//2 109//2 75//2 31//2
f 62//2 44//2 86//2 110//2
f 30//2 62//2 110//2 61//2
f 61//2 110//2 85//2 43//2
f 74//2 26//2 65//2 111//2
f 44//2 74//2 111//2 86//2
f 86//2 111//2 84//2 48//2
f 81//6 47//6 83//6 112//6
f 38//6 81//6 112//6 68//6
f 68//6 112//6 59//6 32//6
f 64//6 34//6 82//6 113//6
f 28//6 64//6 113//6 56//6
f 56//6 113//6 81//6 38//6
f 52//6 26//6 74//6 114//6
f 34//6 52//6 114//6 82//6
f 82//6 114//6 80//6 47//6
f 77//5 46//5 79//5 115//5
f 39//5 77//5 115//5 69//5
f 69//5 115//5 54//5 29//5
f 72//5 42//5 78//5 116//5
f 33//5 72//5 116//5 57//5
f 57//5 116//5 77//5 39//5
f 60//5 31//5 75//5 117//5
f 42//5 60//5 117//5 78//5
f 78//5 117//5 76//5 46//5
f 76//5 45//5 63//5 118//5
f 46//5 76//5 118//5 79//5
f 79//5 118//5 66//5 36//5
f 80//6 44//6 62//6 119//6
f 47//6 80//6 119//6 83//6
f 83//6 119//6 71//6 41//6
f 84//2 35//2 53//2 120//2
f 48//2 84//2 120//2 87//2
f 87//2 120//2 63//2 45//2
f 88//3 43//3 73//3 121//3
f 49//13 88//13 121//13 91//13
f 91//13 121//13 60//13 42//13
f 92//4 40//4 70//4 122//4
f 50//4 92//4 122//4 95//4
f 95//4 122//4 57//4 39//4
f 96//7 37//7 67//7 123//7
f 51//11 96//11 123//11 99//11
f 99//11 123//11 54//11 36//11
f 221//14 165//14 127//14 152//14
f 220//2 168//2 131//2 155//2
f 219//3 171//3 129//3 158//3
f 218//4 151//4 125//4 161//4
f 217//5 160//5 128//5 169//5
f 216//6 161//6 125//6 164//6
f 215//6 173//6 143//6 174//6
f 214//6 176//6 144//6 175//6
f 213//6 177//6 134//6 152//6
f 212//5 172//5 142//5 178//5
f 211//5 180//5 145//5 179//5
f 210//5 181//5 139//5 157//5
f 209//4 163//4 133//4 182//4
f 208//4 184//4 146//4 183//4
f 207//4 185//4 143//4 173//4
f 206//3 159//3 141//3 186//3
f 205//15 188//15 147//15 187//15
f 204//15 189//15 140//15 170//15
f 203//2 156//2 138//2 190//2
f 202//2 192//2 148//2 191//2
f 201//2 193//2 137//2 167//2
f 200//14 153//14 135//14 194//14
f 199//16 196//16 149//16 195//16
f 198//16 197//16 134//16 164//16
f 195//16 149//16 197//16 198//16
f 133//17 195//17 198//17 151//17
f 151//17 198//17 164//17 125//17
f 150//16 132//16 196//16 199//16
f 124//17 150//17 199//17 163//17
f 163//17 199//17 195//17 133//17
f 162//14 126//14 153//14 200//14
f 132//18 162//18 200//18 196//18
f 196//18 200//18 194//18 149//18
f 191//2 148//2 193//2 201//2
f 135//2 191//2 201//2 165//2
f 165//2 201//2 167//2 127//2
f 154//2 136//2 192//2 202//2
f 126//2 154//2 202//2 153//2
f 153//2 202//2 191//2 135//2
f 166//2 130//2 156//2 203//2
f 136//2 166//2 203//2 192//2
f 192//2 203//2 190//2 148//2
f 187//15 147//15 189//15 204//15
f 138//19 187//19 204//19 168//19
f 168//19 204//19 170//19 131//19
f 157//15 139//15 188//15 205//15
f 130//19 157//19 205//19 156//19
f 156//19 205//19 187//19 138//19
f 169//3 128//3 159//3 206//3
f 139//20 169//20 206//20 188//20
f 188//20 206//20 186//20 147//20
f 183//4 146//4 185//4 207//4
f 141//4 183//4 207//4 171//4
f 171//4 207//4 173//4 129//4
f 160//4 142//4 184//4 208//4
f 128//4 160//4 208//4 159//4
f 159//4 208//4 183//4 141//4
f 172//4 124//4 163//4 209//4
f 142//4 172//4 209//4 184//4
f 184//4 209//4 182//4 146//4
f 179//5 145//5 181//5 210//5
f 136//5 179//5 210//5 166//5
f 166//5 210//5 157//5 130//5
f 162//5 132//5 180//5 211//5
f 126//5 162//5 211//5 154//5
f 154//5 211//5 179//5 136//5
f 150//5 124//5 172//5 212//5
f 132//5 150//5 212//5 180//5
f 180//5 212//5 178//5 145//5
f 175//6 144//6 177//6 213//6
f 137//6 175//6 213//6 167//6
f 167//6 213//6 152//6 127//6
f 170//6 140//6 176//6 214//6
f 131//6 170//6 214//6 155//6
f 155//6 214//6 175//6 137//6
f 158//6 129//6 173//6 215//6
f 140//6 158//6 215//6 176//6
f 176//6 215//6 174//6 144//6
f 174//6 143//6 161//6 216//6
f 144//6 174//6 216//6 177//6
f 177//6 216//6 164//6 134//6
f 178//5 142//5 160//5 217//5
f 145//5 178//5 217//5 181//5
f 181//5 217//5 169//5 139//5
f 182//4 133//4 151//4 218//4
f 146//4 182//4 218//4 185//4
f 185//4 218//4 161//4 143//4
f 186//3 141//3 171//3 219//3
f 147//20 186//20 219//20 189//20
f 189//20 219//20 158//20 140//20
f 190//2 138//2 168//2 220//2
f 148//2 190//2 220//2 193//2
f 193//2 220//2 155//2 137//2
f 194//14 135//14 165//14 221//14
f 149//18 194//18 221//18 197//18
f 197//18 221//18 152//18 134//18
f 222//3 240//3 223//3 241//3 225//3 267//3 236//3 258//3 238//3 281//3 254//3 276//3 231//3 266//3
f 274//4 244//4 229//4 245//4
f 228//21 245//21 229//21 264//21 235//21 255//21 232//21 251//21 230//21 275//21 253//21 280//21 234//21 265//21 226//21 246//21
f 273//2 250//2 223//2 240//2
f 272//6 246//6 226//6 249//6
f 271//5 241//5 223//5 250//5
f 270//2 255//2 235//2 260//2
f 226//22 265//22 234//22 277//22 259//22 282//22 237//22 257//22 235//22 264//22 229//22 247//22 227//22 248//22
f 233//3 256//3 236//3 267//3 225//3 242//3 224//3 239//3 222//3 266//3 231//3 252//3
f 269//5 251//5 232//5 263//5
f 279//2 238//2 298//2 299//2
f 282//1 259//1 325//1 324//1
f 257//6 268//6 260//6 235//6
f 237//6 284//6 262//6 268//6 257//6
f 260//1 268//1 302//1 301//1
f 269//1 263//1 306//1 310//1
f 252//3 231//3 307//3 304//3
f 261//5 278//5 230//5 251//5 269//5
f 263//2 270//2 290//2 287//2
f 270//2 260//2 289//2 290//2
f 263//2 232//2 255//2 270//2
f 247//5 271//5 250//5 227//5
f 229//5 244//5 271//5 247//5
f 244//5 225//5 241//5 271//5
f 239//6 272//6 249//6 222//6
f 224//6 243//6 272//6 239//6
f 243//6 228//6 246//6 272//6
f 249//2 273//2 240//2 222//2
f 226//2 248//2 273//2 249//2
f 248//2 227//2 250//2 273//2
f 243//4 274//4 245//4 228//4
f 224//4 242//4 274//4 243//4
f 242//4 225//4 244//4 274//4
f 286//6 287//6 293//6 292//6
f 289//5 288//5 294//5 295//5
f 256//2 233//2 286//2 285//2
f 260//2 236//2 288//2 289//2
f 233//2 263//2 287//2 286//2
f 236//2 256//2 285//2 288//2
f 291//2 296//2 295//2 294//2
f 292//2 293//2 296//2 291//2
f 290//1 289//1 295//1 296//1
f 288//3 285//3 291//3 294//3
f 285//3 286//3 292//3 291//3
f 287//1 290//1 296//1 293//1
f 302//6 297//6 300//6 301//6
f 303//6 299//6 298//6 297//6 302//6
f 238//3 258//3 297//3 298//3
f 236//4 260//4 301//4 300//4
f 268//1 262//1 303//1 302//1
f 258//3 236//3 300//3 297//3
f 262//2 279//2 299//2 303//2
f 304//5 310//5 306//5 305//5
f 307//5 308//5 309//5 310//5 304//5
f 283//2 261//2 309//2 308//2
f 261//1 269//1 310//1 309//1
f 231//2 283//2 308//2 307//2
f 233//3 252//3 304//3 305//3
f 263//4 233//4 305//4 306//4
f 312//4 317//4 327//4 326//4 314//4 313//4 323//4 322//4 319//4 318//4 329//4 328//4 330//4 324//4 325//4 315//4 316//4 320//4 321//4 311//4
f 253//1 275//1 311//1 321//1
f 283//6 231//6 314//6 326//6
f 277//1 234//1 316//1 315//1
f 276//3 254//3 323//3 313//3
f 280//1 253//1 321//1 320//1
f 284//5 237//5 330//5 328//5
f 275//1 230//1 312//1 311//1
f 261//6 283//6 326//6 327//6
f 259//1 277//1 315//1 325//1
f 254//3 281//3 322//3 323//3
f 230//6 278//6 317//6 312//6
f 278//6 261//6 327//6 317//6
f 231//3 276//3 313//3 314//3
f 262//5 284//5 328//5 329//5
f 238//5 279//5 318//5 319//5
f 279//5 262//5 329//5 318//5
f 234//1 280//1 320//1 316//1
f 281//3 238//3 319//3 322//3
f 237//1 282//1 324//1 330//1
